<svg width="1112" height="180" viewBox="0 0 1112 180" fill="none" xmlns="http://www.w3.org/2000/svg">
<g filter="url(#filter0_b_541_824)">
<path d="M1111.52 147.047C1111.52 158.248 1111.52 163.848 1109.34 168.127C1107.42 171.89 1104.36 174.95 1100.6 176.867C1096.32 179.047 1090.72 179.047 1079.52 179.047L32.5161 179.047C21.315 179.047 15.7145 179.047 11.4363 176.867C7.67302 174.95 4.61341 171.89 2.69594 168.127C0.516072 163.848 0.516072 158.248 0.516072 147.047V31.9999C0.516072 20.7988 0.516072 15.1983 2.69594 10.9201C4.61341 7.15682 7.67302 4.09721 11.4363 2.17974C15.7145 -0.0001266 21.315 -0.0001266 32.5161 -0.0001266L1079.52 -0.0001266C1090.72 -0.0001266 1096.32 -0.0001266 1100.6 2.17974C1104.36 4.09721 1107.42 7.15682 1109.34 10.9201C1111.52 15.1983 1111.52 20.7988 1111.52 31.9999V147.047Z" fill="url(#paint0_linear_541_824)"/>
<path d="M1079.52 178.547L32.5161 178.547C26.9073 178.547 22.7308 178.546 19.4208 178.276C16.1167 178.006 13.7201 177.47 11.6632 176.422C7.99414 174.552 5.01099 171.569 3.14148 167.9C2.09338 165.843 1.55688 163.446 1.28687 160.142C1.01648 156.832 1.01611 152.656 1.01611 147.047V31.9999C1.01611 26.3911 1.01648 22.2146 1.28687 18.9046C1.55688 15.6005 2.09338 13.2039 3.14148 11.1471C5.01099 7.47791 7.99414 4.49478 11.6632 2.62524C13.7201 1.57721 16.1167 1.04065 19.4208 0.770691C22.7308 0.500259 26.9073 0.499878 32.5161 0.499878L1079.52 0.499878C1085.12 0.499878 1089.3 0.500259 1092.61 0.770691C1095.92 1.04065 1098.31 1.57721 1100.37 2.62524C1104.04 4.49478 1107.02 7.47791 1108.89 11.1471C1109.94 13.2039 1110.48 15.6005 1110.75 18.9046C1111.02 22.2146 1111.02 26.3911 1111.02 31.9999V147.047C1111.02 152.656 1111.02 156.832 1110.75 160.142C1110.48 163.446 1109.94 165.843 1108.89 167.9C1107.02 171.569 1104.04 174.552 1100.37 176.422C1098.31 177.47 1095.92 178.006 1092.61 178.276C1089.3 178.546 1085.12 178.547 1079.52 178.547Z" stroke="url(#paint1_linear_541_824)" style="mix-blend-mode:overlay"/>
<path d="M1079.52 178.547L32.5161 178.547C26.9073 178.547 22.7308 178.546 19.4208 178.276C16.1167 178.006 13.7201 177.47 11.6632 176.422C7.99414 174.552 5.01099 171.569 3.14148 167.9C2.09338 165.843 1.55688 163.446 1.28687 160.142C1.01648 156.832 1.01611 152.656 1.01611 147.047V31.9999C1.01611 26.3911 1.01648 22.2146 1.28687 18.9046C1.55688 15.6005 2.09338 13.2039 3.14148 11.1471C5.01099 7.47791 7.99414 4.49478 11.6632 2.62524C13.7201 1.57721 16.1167 1.04065 19.4208 0.770691C22.7308 0.500259 26.9073 0.499878 32.5161 0.499878L1079.52 0.499878C1085.12 0.499878 1089.3 0.500259 1092.61 0.770691C1095.92 1.04065 1098.31 1.57721 1100.37 2.62524C1104.04 4.49478 1107.02 7.47791 1108.89 11.1471C1109.94 13.2039 1110.48 15.6005 1110.75 18.9046C1111.02 22.2146 1111.02 26.3911 1111.02 31.9999V147.047C1111.02 152.656 1111.02 156.832 1110.75 160.142C1110.48 163.446 1109.94 165.843 1108.89 167.9C1107.02 171.569 1104.04 174.552 1100.37 176.422C1098.31 177.47 1095.92 178.006 1092.61 178.276C1089.3 178.546 1085.12 178.547 1079.52 178.547Z" stroke="url(#paint2_linear_541_824)" stroke-opacity="0.6" style="mix-blend-mode:overlay"/>
</g>
<defs>
<filter id="filter0_b_541_824" x="-19.4839" y="-20" width="1151" height="219.047" filterUnits="userSpaceOnUse" color-interpolation-filters="sRGB">
<feFlood flood-opacity="0" result="BackgroundImageFix"/>
<feGaussianBlur in="BackgroundImageFix" stdDeviation="10"/>
<feComposite in2="SourceAlpha" operator="in" result="effect1_backgroundBlur_541_824"/>
<feBlend mode="normal" in="SourceGraphic" in2="effect1_backgroundBlur_541_824" result="shape"/>
</filter>
<linearGradient id="paint0_linear_541_824" x1="1111.52" y1="190.379" x2="1111.52" y2="-14.4485" gradientUnits="userSpaceOnUse">
<stop offset="0.0456565" stop-color="#110F13" stop-opacity="0.04"/>
<stop offset="0.235" stop-color="#5F2788" stop-opacity="0.31"/>
<stop offset="1" stop-color="#6639E7"/>
</linearGradient>
<linearGradient id="paint1_linear_541_824" x1="556.016" y1="178.848" x2="556.016" y2="42.342" gradientUnits="userSpaceOnUse">
<stop offset="0.129501" stop-color="white" stop-opacity="0"/>
<stop offset="0.53857" stop-color="white" stop-opacity="0.86615"/>
</linearGradient>
<linearGradient id="paint2_linear_541_824" x1="556.016" y1="179.047" x2="556.016" y2="-0.00012207" gradientUnits="userSpaceOnUse">
<stop stop-color="white"/>
<stop offset="1" stop-color="white" stop-opacity="0"/>
</linearGradient>
</defs>
</svg>