<svg width="282" height="285" viewBox="0 0 282 285" fill="none" xmlns="http://www.w3.org/2000/svg">
<g clip-path="url(#clip0_29_810)">
<rect width="281.25" height="285" fill="#0B0620"/>
<rect x="18" y="52.5" width="245.25" height="123" rx="15" fill="#2567F9"/>
<mask id="mask0_29_810" style="mask-type:alpha" maskUnits="userSpaceOnUse" x="18" y="52" width="246" height="124">
<rect x="18" y="52.5" width="245.25" height="123" rx="15" fill="#2567F9"/>
</mask>
<g mask="url(#mask0_29_810)">
<path d="M266.388 44.3908C266.388 50.5997 271.413 55.633 277.612 55.633C283.812 55.633 288.837 50.5997 288.837 44.3908V31.6871" stroke="white" stroke-opacity="0.1" stroke-width="9" stroke-linecap="round" stroke-linejoin="round"/>
<path d="M287.153 216.63C289.639 216.63 291.653 214.615 291.653 212.13C291.653 209.645 289.639 207.63 287.153 207.63V216.63ZM267.44 247.109C269.925 247.109 271.94 245.094 271.94 242.609C271.94 240.123 269.925 238.109 267.44 238.109V247.109ZM229.878 300.153C232.363 300.153 234.378 298.139 234.378 295.653C234.378 293.168 232.363 291.153 229.878 291.153V300.153ZM272.039 258.434C272.039 255.949 270.025 253.934 267.539 253.934C265.054 253.934 263.039 255.949 263.039 258.434H272.039ZM238.666 141.501C238.666 139.016 236.652 137.001 234.166 137.001C231.681 137.001 229.666 139.016 229.666 141.501H238.666ZM282.654 196.011C282.654 198.497 284.668 200.511 287.154 200.511C289.639 200.511 291.654 198.497 291.654 196.011H282.654ZM287.153 207.63H253.585V216.63H287.153V207.63ZM253.585 207.63C242.661 207.63 233.764 216.445 233.764 227.369H242.764C242.764 221.461 247.586 216.63 253.585 216.63V207.63ZM233.764 227.369C233.764 238.293 242.661 247.109 253.585 247.109V238.109C247.586 238.109 242.764 233.278 242.764 227.369H233.764ZM253.585 247.109H267.44V238.109H253.585V247.109ZM229.878 291.153H227.877V300.153H229.878V291.153ZM227.877 291.153C224.463 291.153 221.687 288.38 221.687 284.952H212.687C212.687 293.341 219.483 300.153 227.877 300.153V291.153ZM221.687 284.952C221.687 281.52 224.464 278.748 227.877 278.748V269.748C219.482 269.748 212.687 276.561 212.687 284.952H221.687ZM227.877 278.748H251.744V269.748H227.877V278.748ZM251.744 278.748C262.958 278.748 272.039 269.649 272.039 258.434H263.039C263.039 264.688 257.977 269.748 251.744 269.748V278.748ZM229.666 141.501V153.528H238.666V141.501H229.666ZM229.666 153.528C229.666 170.657 243.538 184.552 260.66 184.552V175.552C248.518 175.552 238.666 165.696 238.666 153.528H229.666ZM260.66 184.552H271.212V175.552H260.66V184.552ZM271.212 184.552C277.526 184.552 282.654 189.678 282.654 196.011H291.654C291.654 184.717 282.507 175.552 271.212 175.552V184.552Z" fill="white" fill-opacity="0.1"/>
<path fill-rule="evenodd" clip-rule="evenodd" d="M271.252 112.505C275.384 112.505 278.735 109.154 278.735 105.021C278.735 100.889 275.384 97.5383 271.252 97.5383C267.119 97.5383 263.769 100.889 263.769 105.021C263.769 109.154 267.119 112.505 271.252 112.505Z" stroke="white" stroke-opacity="0.1" stroke-width="9" stroke-linecap="round" stroke-linejoin="round"/>
<path fill-rule="evenodd" clip-rule="evenodd" d="M195.672 91.3647C202.181 91.3647 207.458 86.088 207.458 79.5788C207.458 73.0697 202.181 67.793 195.672 67.793C189.163 67.793 183.886 73.0697 183.886 79.5788C183.886 86.088 189.163 91.3647 195.672 91.3647Z" stroke="white" stroke-opacity="0.1" stroke-width="9" stroke-linecap="round" stroke-linejoin="round"/>
<path d="M195.766 105.209C210.282 105.209 222.05 93.6081 222.05 79.2983C222.05 64.9884 210.282 53.3881 195.766 53.3881C181.25 53.3881 169.482 64.9884 169.482 79.2983" stroke="white" stroke-opacity="0.1" stroke-width="9" stroke-linecap="round" stroke-linejoin="round"/>
<path d="M222.705 108.95C216.764 108.95 211.948 113.766 211.948 119.707C211.948 125.648 216.764 130.464 222.705 130.464C228.646 130.464 233.462 125.648 233.462 119.707V108.95" stroke="white" stroke-opacity="0.1" stroke-width="9" stroke-linecap="round" stroke-linejoin="round"/>
<path d="M225.979 45.9986C225.979 53.9025 232.345 60.31 240.197 60.31C248.049 60.31 254.415 53.9025 254.415 45.9986C254.415 38.0946 248.049 31.6871 240.197 31.6871H225.979" stroke="white" stroke-opacity="0.1" stroke-width="9" stroke-linecap="round" stroke-linejoin="round"/>
<path d="M174.625 193.618C167.755 193.618 162.185 188.108 162.185 181.31C162.185 174.512 167.755 169.002 174.625 169.002C181.496 169.002 187.066 174.512 187.066 181.31V218.952" stroke="white" stroke-opacity="0.1" stroke-width="9" stroke-linecap="round" stroke-linejoin="round"/>
<path d="M172.942 137.892C167.001 137.892 162.185 142.637 162.185 148.49C162.185 154.342 167.001 159.087 172.942 159.087C178.883 159.087 183.699 154.342 183.699 148.49V105.208" stroke="white" stroke-opacity="0.1" stroke-width="9" stroke-linecap="round" stroke-linejoin="round"/>
<path d="M290.091 105.208C290.091 94.5665 281.602 85.9395 271.13 85.9395C260.659 85.9395 252.17 94.5665 252.17 105.208C252.17 115.85 260.659 124.477 271.13 124.477H320.827" stroke="white" stroke-opacity="0.1" stroke-width="9" stroke-linecap="round" stroke-linejoin="round"/>
<path fill-rule="evenodd" clip-rule="evenodd" d="M211.106 194.444C204.959 194.444 199.975 189.469 199.975 183.332V151.679C199.975 145.541 204.959 140.566 211.106 140.566V140.566C217.254 140.566 222.237 145.541 222.237 151.679V183.332C222.237 189.469 217.254 194.444 211.106 194.444V194.444Z" stroke="white" stroke-opacity="0.1" stroke-width="9" stroke-linecap="round" stroke-linejoin="round"/>
<path d="M270.878 162.641H261.676C255.496 162.641 250.486 157.616 250.486 151.417C250.486 145.218 255.496 140.192 261.676 140.192H280.079C286.259 140.192 291.269 145.218 291.269 151.417V152.414C291.269 158.062 286.704 162.641 281.073 162.641" stroke="white" stroke-opacity="0.1" stroke-width="9" stroke-linecap="round" stroke-linejoin="round"/>
<path d="M287.528 69.4768H262.332C246.387 69.4768 233.462 82.4591 233.462 98.4738" stroke="white" stroke-opacity="0.1" stroke-width="9" stroke-linecap="round" stroke-linejoin="round"/>
<path d="M169.575 92.4873C169.575 94.2296 169.575 116.161 169.575 126.91" stroke="white" stroke-opacity="0.1" stroke-width="9" stroke-linecap="round" stroke-linejoin="round"/>
</g>
<path d="M31.836 156.429C31.566 156.429 31.317 156.366 31.089 156.24C30.861 156.108 30.681 155.928 30.549 155.7C30.423 155.472 30.36 155.217 30.36 154.935C30.36 154.653 30.423 154.401 30.549 154.179C30.681 153.951 30.858 153.774 31.08 153.648C31.308 153.522 31.56 153.459 31.836 153.459C32.112 153.459 32.364 153.522 32.592 153.648C32.82 153.774 33 153.951 33.132 154.179C33.264 154.401 33.33 154.653 33.33 154.935C33.33 155.217 33.264 155.472 33.132 155.7C33 155.928 32.82 156.108 32.592 156.24C32.364 156.366 32.112 156.429 31.836 156.429ZM38.5676 156.429C38.2976 156.429 38.0486 156.366 37.8206 156.24C37.5926 156.108 37.4126 155.928 37.2806 155.7C37.1546 155.472 37.0916 155.217 37.0916 154.935C37.0916 154.653 37.1546 154.401 37.2806 154.179C37.4126 153.951 37.5896 153.774 37.8116 153.648C38.0396 153.522 38.2916 153.459 38.5676 153.459C38.8436 153.459 39.0956 153.522 39.3236 153.648C39.5516 153.774 39.7316 153.951 39.8636 154.179C39.9956 154.401 40.0616 154.653 40.0616 154.935C40.0616 155.217 39.9956 155.472 39.8636 155.7C39.7316 155.928 39.5516 156.108 39.3236 156.24C39.0956 156.366 38.8436 156.429 38.5676 156.429ZM45.2993 156.429C45.0293 156.429 44.7803 156.366 44.5523 156.24C44.3243 156.108 44.1443 155.928 44.0123 155.7C43.8863 155.472 43.8233 155.217 43.8233 154.935C43.8233 154.653 43.8863 154.401 44.0123 154.179C44.1443 153.951 44.3213 153.774 44.5433 153.648C44.7713 153.522 45.0233 153.459 45.2993 153.459C45.5753 153.459 45.8273 153.522 46.0553 153.648C46.2833 153.774 46.4633 153.951 46.5953 154.179C46.7273 154.401 46.7933 154.653 46.7933 154.935C46.7933 155.217 46.7273 155.472 46.5953 155.7C46.4633 155.928 46.2833 156.108 46.0553 156.24C45.8273 156.366 45.5753 156.429 45.2993 156.429ZM52.0309 156.429C51.7609 156.429 51.5119 156.366 51.2839 156.24C51.0559 156.108 50.8759 155.928 50.7439 155.7C50.6179 155.472 50.5549 155.217 50.5549 154.935C50.5549 154.653 50.6179 154.401 50.7439 154.179C50.8759 153.951 51.0529 153.774 51.2749 153.648C51.5029 153.522 51.7549 153.459 52.0309 153.459C52.3069 153.459 52.5589 153.522 52.7869 153.648C53.0149 153.774 53.1949 153.951 53.3269 154.179C53.4589 154.401 53.5249 154.653 53.5249 154.935C53.5249 155.217 53.4589 155.472 53.3269 155.7C53.1949 155.928 53.0149 156.108 52.7869 156.24C52.5589 156.366 52.3069 156.429 52.0309 156.429Z" fill="white"/>
<path d="M60.774 157.59C60.27 157.59 59.82 157.464 59.424 157.212C59.028 156.954 58.716 156.582 58.488 156.096C58.26 155.604 58.146 155.022 58.146 154.35C58.146 153.678 58.26 153.099 58.488 152.613C58.716 152.121 59.028 151.749 59.424 151.497C59.82 151.239 60.27 151.11 60.774 151.11C61.278 151.11 61.728 151.239 62.124 151.497C62.526 151.749 62.841 152.121 63.069 152.613C63.297 153.099 63.411 153.678 63.411 154.35C63.411 155.022 63.297 155.604 63.069 156.096C62.841 156.582 62.526 156.954 62.124 157.212C61.728 157.464 61.278 157.59 60.774 157.59ZM60.774 156.573C61.224 156.573 61.578 156.387 61.836 156.015C62.1 155.643 62.232 155.088 62.232 154.35C62.232 153.612 62.1 153.057 61.836 152.685C61.578 152.313 61.224 152.127 60.774 152.127C60.33 152.127 59.976 152.313 59.712 152.685C59.454 153.057 59.325 153.612 59.325 154.35C59.325 155.088 59.454 155.643 59.712 156.015C59.976 156.387 60.33 156.573 60.774 156.573ZM69.6207 156.51V157.5H64.9767V156.717L67.4787 154.341C67.7607 154.071 67.9497 153.837 68.0457 153.639C68.1477 153.435 68.1987 153.234 68.1987 153.036C68.1987 152.742 68.0997 152.517 67.9017 152.361C67.7037 152.205 67.4127 152.127 67.0287 152.127C66.3867 152.127 65.8947 152.346 65.5527 152.784L64.7337 152.154C64.9797 151.824 65.3097 151.569 65.7237 151.389C66.1437 151.203 66.6117 151.11 67.1277 151.11C67.8117 151.11 68.3577 151.272 68.7657 151.596C69.1737 151.92 69.3777 152.361 69.3777 152.919C69.3777 153.261 69.3057 153.582 69.1617 153.882C69.0177 154.182 68.7417 154.524 68.3337 154.908L66.6507 156.51H69.6207ZM73.374 151.2V157.5H72.204V152.181H70.872V151.2H73.374ZM80.0867 156.51V157.5H75.4427V156.717L77.9447 154.341C78.2267 154.071 78.4157 153.837 78.5117 153.639C78.6137 153.435 78.6647 153.234 78.6647 153.036C78.6647 152.742 78.5657 152.517 78.3677 152.361C78.1697 152.205 77.8787 152.127 77.4947 152.127C76.8527 152.127 76.3607 152.346 76.0187 152.784L75.1997 152.154C75.4457 151.824 75.7757 151.569 76.1897 151.389C76.6097 151.203 77.0777 151.11 77.5937 151.11C78.2777 151.11 78.8237 151.272 79.2317 151.596C79.6397 151.92 79.8437 152.361 79.8437 152.919C79.8437 153.261 79.7717 153.582 79.6277 153.882C79.4837 154.182 79.2077 154.524 78.7997 154.908L77.1167 156.51H80.0867Z" fill="white"/>
<path d="M34.512 90.1C35.584 90.1 36.424 90.356 37.032 90.868C37.64 91.38 37.944 92.084 37.944 92.98C37.944 93.876 37.64 94.58 37.032 95.092C36.424 95.596 35.584 95.848 34.512 95.848H32.256V98.5H31.368V90.1H34.512ZM34.488 95.068C35.32 95.068 35.956 94.888 36.396 94.528C36.836 94.16 37.056 93.644 37.056 92.98C37.056 92.3 36.836 91.78 36.396 91.42C35.956 91.052 35.32 90.868 34.488 90.868H32.256V95.068H34.488ZM40.0293 89.596H40.8813V98.5H40.0293V89.596ZM45.6879 92.14C46.5119 92.14 47.1439 92.348 47.5839 92.764C48.0239 93.172 48.2439 93.78 48.2439 94.588V98.5H47.4279V97.516C47.2359 97.844 46.9519 98.1 46.5759 98.284C46.2079 98.468 45.7679 98.56 45.2559 98.56C44.5519 98.56 43.9919 98.392 43.5759 98.056C43.1599 97.72 42.9519 97.276 42.9519 96.724C42.9519 96.188 43.1439 95.756 43.5279 95.428C43.9199 95.1 44.5399 94.936 45.3879 94.936H47.3919V94.552C47.3919 94.008 47.2399 93.596 46.9359 93.316C46.6319 93.028 46.1879 92.884 45.6039 92.884C45.2039 92.884 44.8199 92.952 44.4519 93.088C44.0839 93.216 43.7679 93.396 43.5039 93.628L43.1199 92.992C43.4399 92.72 43.8239 92.512 44.2719 92.368C44.7199 92.216 45.1919 92.14 45.6879 92.14ZM45.3879 97.888C45.8679 97.888 46.2799 97.78 46.6239 97.564C46.9679 97.34 47.2239 97.02 47.3919 96.604V95.572H45.4119C44.3319 95.572 43.7919 95.948 43.7919 96.7C43.7919 97.068 43.9319 97.36 44.2119 97.576C44.4919 97.784 44.8839 97.888 45.3879 97.888ZM54.1101 98.116C53.9501 98.26 53.7501 98.372 53.5101 98.452C53.2781 98.524 53.0341 98.56 52.7781 98.56C52.1861 98.56 51.7301 98.4 51.4101 98.08C51.0901 97.76 50.9301 97.308 50.9301 96.724V92.908H49.8021V92.188H50.9301V90.808H51.7821V92.188H53.7021V92.908H51.7821V96.676C51.7821 97.052 51.8741 97.34 52.0581 97.54C52.2501 97.732 52.5221 97.828 52.8741 97.828C53.0501 97.828 53.2181 97.8 53.3781 97.744C53.5461 97.688 53.6901 97.608 53.8101 97.504L54.1101 98.116ZM55.8891 92.188H56.7411V98.5H55.8891V92.188ZM56.3211 90.808C56.1451 90.808 55.9971 90.748 55.8771 90.628C55.7571 90.508 55.6971 90.364 55.6971 90.196C55.6971 90.036 55.7571 89.896 55.8771 89.776C55.9971 89.656 56.1451 89.596 56.3211 89.596C56.4971 89.596 56.6451 89.656 56.7651 89.776C56.8851 89.888 56.9451 90.024 56.9451 90.184C56.9451 90.36 56.8851 90.508 56.7651 90.628C56.6451 90.748 56.4971 90.808 56.3211 90.808ZM62.5557 92.14C63.3477 92.14 63.9757 92.372 64.4397 92.836C64.9117 93.292 65.1477 93.96 65.1477 94.84V98.5H64.2957V94.924C64.2957 94.268 64.1317 93.768 63.8037 93.424C63.4757 93.08 63.0077 92.908 62.3997 92.908C61.7197 92.908 61.1797 93.112 60.7797 93.52C60.3877 93.92 60.1917 94.476 60.1917 95.188V98.5H59.3397V92.188H60.1557V93.352C60.3877 92.968 60.7077 92.672 61.1157 92.464C61.5317 92.248 62.0117 92.14 62.5557 92.14ZM73.3768 92.188V98.5H72.5608V97.348C72.3368 97.732 72.0288 98.032 71.6368 98.248C71.2448 98.456 70.7968 98.56 70.2928 98.56C69.4688 98.56 68.8168 98.332 68.3368 97.876C67.8648 97.412 67.6288 96.736 67.6288 95.848V92.188H68.4808V95.764C68.4808 96.428 68.6448 96.932 68.9728 97.276C69.3008 97.62 69.7688 97.792 70.3768 97.792C71.0408 97.792 71.5648 97.592 71.9488 97.192C72.3328 96.784 72.5248 96.22 72.5248 95.5V92.188H73.3768ZM83.863 92.14C84.655 92.14 85.275 92.368 85.723 92.824C86.179 93.28 86.407 93.952 86.407 94.84V98.5H85.555V94.924C85.555 94.268 85.395 93.768 85.075 93.424C84.763 93.08 84.319 92.908 83.743 92.908C83.087 92.908 82.571 93.112 82.195 93.52C81.819 93.92 81.631 94.476 81.631 95.188V98.5H80.779V94.924C80.779 94.268 80.619 93.768 80.299 93.424C79.987 93.08 79.539 92.908 78.955 92.908C78.307 92.908 77.791 93.112 77.407 93.52C77.031 93.92 76.843 94.476 76.843 95.188V98.5H75.991V92.188H76.807V93.34C77.031 92.956 77.343 92.66 77.743 92.452C78.143 92.244 78.603 92.14 79.123 92.14C79.651 92.14 80.107 92.252 80.491 92.476C80.883 92.7 81.175 93.032 81.367 93.472C81.599 93.056 81.931 92.732 82.363 92.5C82.803 92.26 83.303 92.14 83.863 92.14Z" fill="white"/>
<path fill-rule="evenodd" clip-rule="evenodd" d="M62.7484 65.1318L62.2243 68.2441C60.653 67.3545 57.077 67.144 57.077 68.7821C57.077 69.433 57.8861 69.8807 58.8613 70.4203C60.3403 71.2385 62.2013 72.2682 62.2013 74.5388C62.2013 78.1666 58.4208 79.5 55.9154 79.5C53.41 79.5 51.7704 78.6813 51.7704 78.6813L52.3166 75.428C53.8197 76.668 58.3751 77.02 58.3751 75.0539C58.3751 74.2278 57.4785 73.7407 56.4388 73.1757C55.0039 72.396 53.2964 71.4682 53.2964 69.2973C53.2964 65.3187 57.6236 64.5 59.4458 64.5C61.1314 64.5 62.7484 65.1318 62.7484 65.1318ZM71.6284 79.2503H75L72.0604 64.7589H69.1083C67.7452 64.7589 67.4132 65.8388 67.4132 65.8388L61.9372 79.2503H65.7646L66.53 77.0978H71.1979L71.6284 79.2503ZM67.5879 74.1244L69.5172 68.7015L70.6026 74.1244H67.5879ZM39.2464 74.7264L42.747 64.7593H46.6988L40.8569 79.2508H37.0311L33.8409 66.6614C31.7701 65.383 30 65.0047 30 65.0047L30.0679 64.7593H35.8551C37.4476 64.7593 37.597 66.0645 37.597 66.0645L38.8325 72.5809L38.8321 72.5801L39.2464 74.7264ZM45.836 79.2504H49.508L51.8032 64.7593H48.1309L45.836 79.2504Z" fill="white"/>
<path d="M23.595 26.87V30.5H22.11V26.84L17.94 20H19.545L22.905 25.535L26.28 20H27.765L23.595 26.87ZM31.5884 30.59C30.7984 30.59 30.0884 30.415 29.4584 30.065C28.8284 29.715 28.3334 29.235 27.9734 28.625C27.6234 28.005 27.4484 27.305 27.4484 26.525C27.4484 25.745 27.6234 25.05 27.9734 24.44C28.3334 23.82 28.8284 23.34 29.4584 23C30.0884 22.65 30.7984 22.475 31.5884 22.475C32.3784 22.475 33.0834 22.65 33.7034 23C34.3334 23.34 34.8234 23.82 35.1734 24.44C35.5334 25.05 35.7134 25.745 35.7134 26.525C35.7134 27.305 35.5334 28.005 35.1734 28.625C34.8234 29.235 34.3334 29.715 33.7034 30.065C33.0834 30.415 32.3784 30.59 31.5884 30.59ZM31.5884 29.33C32.0984 29.33 32.5534 29.215 32.9534 28.985C33.3634 28.745 33.6834 28.415 33.9134 27.995C34.1434 27.565 34.2584 27.075 34.2584 26.525C34.2584 25.975 34.1434 25.49 33.9134 25.07C33.6834 24.64 33.3634 24.31 32.9534 24.08C32.5534 23.85 32.0984 23.735 31.5884 23.735C31.0784 23.735 30.6184 23.85 30.2084 24.08C29.8084 24.31 29.4884 24.64 29.2484 25.07C29.0184 25.49 28.9034 25.975 28.9034 26.525C28.9034 27.075 29.0184 27.565 29.2484 27.995C29.4884 28.415 29.8084 28.745 30.2084 28.985C30.6184 29.215 31.0784 29.33 31.5884 29.33ZM45.1148 22.55V30.5H43.7498V29.3C43.4598 29.71 43.0748 30.03 42.5948 30.26C42.1248 30.48 41.6098 30.59 41.0498 30.59C39.9898 30.59 39.1548 30.3 38.5448 29.72C37.9348 29.13 37.6298 28.265 37.6298 27.125V22.55H39.0698V26.96C39.0698 27.73 39.2548 28.315 39.6248 28.715C39.9948 29.105 40.5248 29.3 41.2148 29.3C41.9748 29.3 42.5748 29.07 43.0148 28.61C43.4548 28.15 43.6748 27.5 43.6748 26.66V22.55H45.1148ZM49.2362 23.885C49.4862 23.425 49.8562 23.075 50.3462 22.835C50.8362 22.595 51.4312 22.475 52.1312 22.475V23.87C52.0512 23.86 51.9412 23.855 51.8012 23.855C51.0212 23.855 50.4062 24.09 49.9562 24.56C49.5162 25.02 49.2962 25.68 49.2962 26.54V30.5H47.8562V22.55H49.2362V23.885ZM62.9419 30.62C61.8919 30.62 60.9419 30.39 60.0919 29.93C59.2519 29.46 58.5919 28.82 58.1119 28.01C57.6319 27.19 57.3919 26.27 57.3919 25.25C57.3919 24.23 57.6319 23.315 58.1119 22.505C58.5919 21.685 59.2569 21.045 60.1069 20.585C60.9569 20.115 61.9069 19.88 62.9569 19.88C63.7769 19.88 64.5269 20.02 65.2069 20.3C65.8869 20.57 66.4669 20.975 66.9469 21.515L65.9719 22.46C65.1819 21.63 64.1969 21.215 63.0169 21.215C62.2369 21.215 61.5319 21.39 60.9019 21.74C60.2719 22.09 59.7769 22.575 59.4169 23.195C59.0669 23.805 58.8919 24.49 58.8919 25.25C58.8919 26.01 59.0669 26.7 59.4169 27.32C59.7769 27.93 60.2719 28.41 60.9019 28.76C61.5319 29.11 62.2369 29.285 63.0169 29.285C64.1869 29.285 65.1719 28.865 65.9719 28.025L66.9469 28.97C66.4669 29.51 65.8819 29.92 65.1919 30.2C64.5119 30.48 63.7619 30.62 62.9419 30.62ZM71.6692 22.475C72.7692 22.475 73.6092 22.745 74.1892 23.285C74.7792 23.825 75.0742 24.63 75.0742 25.7V30.5H73.7092V29.45C73.4692 29.82 73.1242 30.105 72.6742 30.305C72.2342 30.495 71.7092 30.59 71.0992 30.59C70.2092 30.59 69.4942 30.375 68.9542 29.945C68.4242 29.515 68.1592 28.95 68.1592 28.25C68.1592 27.55 68.4142 26.99 68.9242 26.57C69.4342 26.14 70.2442 25.925 71.3542 25.925H73.6342V25.64C73.6342 25.02 73.4542 24.545 73.0942 24.215C72.7342 23.885 72.2042 23.72 71.5042 23.72C71.0342 23.72 70.5742 23.8 70.1242 23.96C69.6742 24.11 69.2942 24.315 68.9842 24.575L68.3842 23.495C68.7942 23.165 69.2842 22.915 69.8542 22.745C70.4242 22.565 71.0292 22.475 71.6692 22.475ZM71.3392 29.48C71.8892 29.48 72.3642 29.36 72.7642 29.12C73.1642 28.87 73.4542 28.52 73.6342 28.07V26.96H71.4142C70.1942 26.96 69.5842 27.37 69.5842 28.19C69.5842 28.59 69.7392 28.905 70.0492 29.135C70.3592 29.365 70.7892 29.48 71.3392 29.48ZM79.119 23.885C79.369 23.425 79.739 23.075 80.229 22.835C80.719 22.595 81.314 22.475 82.014 22.475V23.87C81.934 23.86 81.824 23.855 81.684 23.855C80.904 23.855 80.289 24.09 79.839 24.56C79.399 25.02 79.179 25.68 79.179 26.54V30.5H77.739V22.55H79.119V23.885ZM91.2156 19.37V30.5H89.8356V29.24C89.5156 29.68 89.1106 30.015 88.6206 30.245C88.1306 30.475 87.5906 30.59 87.0006 30.59C86.2306 30.59 85.5406 30.42 84.9306 30.08C84.3206 29.74 83.8406 29.265 83.4906 28.655C83.1506 28.035 82.9806 27.325 82.9806 26.525C82.9806 25.725 83.1506 25.02 83.4906 24.41C83.8406 23.8 84.3206 23.325 84.9306 22.985C85.5406 22.645 86.2306 22.475 87.0006 22.475C87.5706 22.475 88.0956 22.585 88.5756 22.805C89.0556 23.015 89.4556 23.33 89.7756 23.75V19.37H91.2156ZM87.1206 29.33C87.6206 29.33 88.0756 29.215 88.4856 28.985C88.8956 28.745 89.2156 28.415 89.4456 27.995C89.6756 27.565 89.7906 27.075 89.7906 26.525C89.7906 25.975 89.6756 25.49 89.4456 25.07C89.2156 24.64 88.8956 24.31 88.4856 24.08C88.0756 23.85 87.6206 23.735 87.1206 23.735C86.6106 23.735 86.1506 23.85 85.7406 24.08C85.3406 24.31 85.0206 24.64 84.7806 25.07C84.5506 25.49 84.4356 25.975 84.4356 26.525C84.4356 27.075 84.5506 27.565 84.7806 27.995C85.0206 28.415 85.3406 28.745 85.7406 28.985C86.1506 29.215 86.6106 29.33 87.1206 29.33Z" fill="white"/>
<rect x="272.25" y="52.5" width="245.25" height="123" rx="15" fill="#FFB017"/>
<mask id="mask1_29_810" style="mask-type:alpha" maskUnits="userSpaceOnUse" x="272" y="52" width="246" height="124">
<rect x="272.25" y="52.5" width="245.25" height="123" rx="15" fill="#2567F9"/>
</mask>
<g mask="url(#mask1_29_810)">
</g>
<rect x="130.5" y="184.5" width="11.25" height="3" rx="1.5" fill="#2567F9"/>
<rect x="147.75" y="184.5" width="3" height="3" rx="1.5" fill="white"/>
<path d="M29.763 262.554C29.295 262.554 28.845 262.479 28.413 262.329C27.987 262.179 27.657 261.981 27.423 261.735L27.684 261.222C27.912 261.45 28.215 261.636 28.593 261.78C28.971 261.918 29.361 261.987 29.763 261.987C30.327 261.987 30.75 261.885 31.032 261.681C31.314 261.471 31.455 261.201 31.455 260.871C31.455 260.619 31.377 260.418 31.221 260.268C31.071 260.118 30.885 260.004 30.663 259.926C30.441 259.842 30.132 259.752 29.736 259.656C29.262 259.536 28.884 259.422 28.602 259.314C28.32 259.2 28.077 259.029 27.873 258.801C27.675 258.573 27.576 258.264 27.576 257.874C27.576 257.556 27.66 257.268 27.828 257.01C27.996 256.746 28.254 256.536 28.602 256.38C28.95 256.224 29.382 256.146 29.898 256.146C30.258 256.146 30.609 256.197 30.951 256.299C31.299 256.395 31.599 256.53 31.851 256.704L31.626 257.235C31.362 257.061 31.08 256.932 30.78 256.848C30.48 256.758 30.186 256.713 29.898 256.713C29.346 256.713 28.929 256.821 28.647 257.037C28.371 257.247 28.233 257.52 28.233 257.856C28.233 258.108 28.308 258.312 28.458 258.468C28.614 258.618 28.806 258.735 29.034 258.819C29.268 258.897 29.58 258.984 29.97 259.08C30.432 259.194 30.804 259.308 31.086 259.422C31.374 259.53 31.617 259.698 31.815 259.926C32.013 260.148 32.112 260.451 32.112 260.835C32.112 261.153 32.025 261.444 31.851 261.708C31.683 261.966 31.422 262.173 31.068 262.329C30.714 262.479 30.279 262.554 29.763 262.554ZM37.5501 260.331H33.5901C33.6261 260.823 33.8151 261.222 34.1571 261.528C34.4991 261.828 34.9311 261.978 35.4531 261.978C35.7471 261.978 36.0171 261.927 36.2631 261.825C36.5091 261.717 36.7221 261.561 36.9021 261.357L37.2621 261.771C37.0521 262.023 36.7881 262.215 36.4701 262.347C36.1581 262.479 35.8131 262.545 35.4351 262.545C34.9491 262.545 34.5171 262.443 34.1391 262.239C33.7671 262.029 33.4761 261.741 33.2661 261.375C33.0561 261.009 32.9511 260.595 32.9511 260.133C32.9511 259.671 33.0501 259.257 33.2481 258.891C33.4521 258.525 33.7281 258.24 34.0761 258.036C34.4301 257.832 34.8261 257.73 35.2641 257.73C35.7021 257.73 36.0951 257.832 36.4431 258.036C36.7911 258.24 37.0641 258.525 37.2621 258.891C37.4601 259.251 37.5591 259.665 37.5591 260.133L37.5501 260.331ZM35.2641 258.279C34.8081 258.279 34.4241 258.426 34.1121 258.72C33.8061 259.008 33.6321 259.386 33.5901 259.854H36.9471C36.9051 259.386 36.7281 259.008 36.4161 258.72C36.1101 258.426 35.7261 258.279 35.2641 258.279ZM41.2718 257.73C41.8658 257.73 42.3368 257.904 42.6848 258.252C43.0388 258.594 43.2158 259.095 43.2158 259.755V262.5H42.5768V259.818C42.5768 259.326 42.4538 258.951 42.2078 258.693C41.9618 258.435 41.6108 258.306 41.1548 258.306C40.6448 258.306 40.2398 258.459 39.9398 258.765C39.6458 259.065 39.4988 259.482 39.4988 260.016V262.5H38.8598V257.766H39.4718V258.639C39.6458 258.351 39.8858 258.129 40.1918 257.973C40.5038 257.811 40.8638 257.73 41.2718 257.73ZM47.4436 262.212C47.3236 262.32 47.1736 262.404 46.9936 262.464C46.8196 262.518 46.6366 262.545 46.4446 262.545C46.0006 262.545 45.6586 262.425 45.4186 262.185C45.1786 261.945 45.0586 261.606 45.0586 261.168V258.306H44.2126V257.766H45.0586V256.731H45.6976V257.766H47.1376V258.306H45.6976V261.132C45.6976 261.414 45.7666 261.63 45.9046 261.78C46.0486 261.924 46.2526 261.996 46.5166 261.996C46.6486 261.996 46.7746 261.975 46.8946 261.933C47.0206 261.891 47.1286 261.831 47.2186 261.753L47.4436 262.212Z" fill="white"/>
<rect x="18" y="205.5" width="39" height="39" rx="7.5" fill="#23265A"/>
<path fill-rule="evenodd" clip-rule="evenodd" d="M37.4135 216.807C37.6375 216.807 37.8523 216.886 38.0107 217.026C38.1691 217.167 38.2581 217.358 38.2581 217.557V231.057C38.2581 231.256 38.1691 231.446 38.0107 231.587C37.8523 231.728 37.6375 231.807 37.4135 231.807C37.1895 231.807 36.9746 231.728 36.8162 231.587C36.6578 231.446 36.5688 231.256 36.5688 231.057V217.557C36.5688 217.358 36.6578 217.167 36.8162 217.026C36.9746 216.886 37.1895 216.807 37.4135 216.807V216.807Z" fill="#FF2D2D"/>
<path fill-rule="evenodd" clip-rule="evenodd" d="M36.8154 216.998C36.8939 216.919 36.9871 216.857 37.0897 216.814C37.1923 216.772 37.3023 216.75 37.4134 216.75C37.5245 216.75 37.6345 216.772 37.7371 216.814C37.8397 216.857 37.9329 216.919 38.0114 216.998L43.0791 222.066C43.2377 222.224 43.3268 222.44 43.3268 222.664C43.3268 222.888 43.2377 223.103 43.0791 223.262C42.9205 223.42 42.7054 223.51 42.4811 223.51C42.2568 223.51 42.0417 223.42 41.8831 223.262L37.4134 218.79L32.9437 223.262C32.7851 223.42 32.57 223.51 32.3457 223.51C32.1214 223.51 31.9063 223.42 31.7477 223.262C31.5891 223.103 31.5 222.888 31.5 222.664C31.5 222.44 31.5891 222.224 31.7477 222.066L36.8154 216.998Z" fill="#FF2D2D"/>
<path d="M93.828 262.5L92.388 260.475C92.226 260.493 92.058 260.502 91.884 260.502H90.192V262.5H89.526V256.2H91.884C92.688 256.2 93.318 256.392 93.774 256.776C94.23 257.16 94.458 257.688 94.458 258.36C94.458 258.852 94.332 259.269 94.08 259.611C93.834 259.947 93.48 260.19 93.018 260.34L94.557 262.5H93.828ZM91.866 259.935C92.49 259.935 92.967 259.797 93.297 259.521C93.627 259.245 93.792 258.858 93.792 258.36C93.792 257.85 93.627 257.46 93.297 257.19C92.967 256.914 92.49 256.776 91.866 256.776H90.192V259.935H91.866ZM100.017 260.331H96.0569C96.0929 260.823 96.2819 261.222 96.6239 261.528C96.9659 261.828 97.3979 261.978 97.9199 261.978C98.2139 261.978 98.4839 261.927 98.7299 261.825C98.9759 261.717 99.1889 261.561 99.3689 261.357L99.7289 261.771C99.5189 262.023 99.2549 262.215 98.9369 262.347C98.6249 262.479 98.2799 262.545 97.9019 262.545C97.4159 262.545 96.9839 262.443 96.6059 262.239C96.2339 262.029 95.9429 261.741 95.7329 261.375C95.5229 261.009 95.4179 260.595 95.4179 260.133C95.4179 259.671 95.5169 259.257 95.7149 258.891C95.9189 258.525 96.1949 258.24 96.5429 258.036C96.8969 257.832 97.2929 257.73 97.7309 257.73C98.1689 257.73 98.5619 257.832 98.9099 258.036C99.2579 258.24 99.5309 258.525 99.7289 258.891C99.9269 259.251 100.026 259.665 100.026 260.133L100.017 260.331ZM97.7309 258.279C97.2749 258.279 96.8909 258.426 96.5789 258.72C96.2729 259.008 96.0989 259.386 96.0569 259.854H99.4139C99.3719 259.386 99.1949 259.008 98.8829 258.72C98.5769 258.426 98.1929 258.279 97.7309 258.279ZM103.289 262.545C102.821 262.545 102.401 262.443 102.029 262.239C101.663 262.035 101.375 261.75 101.165 261.384C100.955 261.012 100.85 260.595 100.85 260.133C100.85 259.671 100.955 259.257 101.165 258.891C101.375 258.525 101.663 258.24 102.029 258.036C102.401 257.832 102.821 257.73 103.289 257.73C103.697 257.73 104.06 257.811 104.378 257.973C104.702 258.129 104.957 258.36 105.143 258.666L104.666 258.99C104.51 258.756 104.312 258.582 104.072 258.468C103.832 258.348 103.571 258.288 103.289 258.288C102.947 258.288 102.638 258.366 102.362 258.522C102.092 258.672 101.879 258.888 101.723 259.17C101.573 259.452 101.498 259.773 101.498 260.133C101.498 260.499 101.573 260.823 101.723 261.105C101.879 261.381 102.092 261.597 102.362 261.753C102.638 261.903 102.947 261.978 103.289 261.978C103.571 261.978 103.832 261.921 104.072 261.807C104.312 261.693 104.51 261.519 104.666 261.285L105.143 261.609C104.957 261.915 104.702 262.149 104.378 262.311C104.054 262.467 103.691 262.545 103.289 262.545ZM110.441 260.331H106.481C106.517 260.823 106.706 261.222 107.048 261.528C107.39 261.828 107.822 261.978 108.344 261.978C108.638 261.978 108.908 261.927 109.154 261.825C109.4 261.717 109.613 261.561 109.793 261.357L110.153 261.771C109.943 262.023 109.679 262.215 109.361 262.347C109.049 262.479 108.704 262.545 108.326 262.545C107.84 262.545 107.408 262.443 107.03 262.239C106.658 262.029 106.367 261.741 106.157 261.375C105.947 261.009 105.842 260.595 105.842 260.133C105.842 259.671 105.941 259.257 106.139 258.891C106.343 258.525 106.619 258.24 106.967 258.036C107.321 257.832 107.717 257.73 108.155 257.73C108.593 257.73 108.986 257.832 109.334 258.036C109.682 258.24 109.955 258.525 110.153 258.891C110.351 259.251 110.45 259.665 110.45 260.133L110.441 260.331ZM108.155 258.279C107.699 258.279 107.315 258.426 107.003 258.72C106.697 259.008 106.523 259.386 106.481 259.854H109.838C109.796 259.386 109.619 259.008 109.307 258.72C109.001 258.426 108.617 258.279 108.155 258.279ZM111.75 257.766H112.389V262.5H111.75V257.766ZM112.074 256.731C111.942 256.731 111.831 256.686 111.741 256.596C111.651 256.506 111.606 256.398 111.606 256.272C111.606 256.152 111.651 256.047 111.741 255.957C111.831 255.867 111.942 255.822 112.074 255.822C112.206 255.822 112.317 255.867 112.407 255.957C112.497 256.041 112.542 256.143 112.542 256.263C112.542 256.395 112.497 256.506 112.407 256.596C112.317 256.686 112.206 256.731 112.074 256.731ZM118.145 257.766L116.039 262.5H115.382L113.285 257.766H113.951L115.724 261.798L117.515 257.766H118.145ZM123.035 260.331H119.075C119.111 260.823 119.3 261.222 119.642 261.528C119.984 261.828 120.416 261.978 120.938 261.978C121.232 261.978 121.502 261.927 121.748 261.825C121.994 261.717 122.207 261.561 122.387 261.357L122.747 261.771C122.537 262.023 122.273 262.215 121.955 262.347C121.643 262.479 121.298 262.545 120.92 262.545C120.434 262.545 120.002 262.443 119.624 262.239C119.252 262.029 118.961 261.741 118.751 261.375C118.541 261.009 118.436 260.595 118.436 260.133C118.436 259.671 118.535 259.257 118.733 258.891C118.937 258.525 119.213 258.24 119.561 258.036C119.915 257.832 120.311 257.73 120.749 257.73C121.187 257.73 121.58 257.832 121.928 258.036C122.276 258.24 122.549 258.525 122.747 258.891C122.945 259.251 123.044 259.665 123.044 260.133L123.035 260.331ZM120.749 258.279C120.293 258.279 119.909 258.426 119.597 258.72C119.291 259.008 119.117 259.386 119.075 259.854H122.432C122.39 259.386 122.213 259.008 121.901 258.72C121.595 258.426 121.211 258.279 120.749 258.279Z" fill="white"/>
<rect x="86.25" y="205.5" width="39" height="39" rx="7.5" fill="#23265A"/>
<path fill-rule="evenodd" clip-rule="evenodd" d="M105.837 233.193C105.613 233.193 105.398 233.114 105.239 232.974C105.081 232.833 104.992 232.642 104.992 232.443L104.992 218.943C104.992 218.745 105.081 218.554 105.239 218.413C105.398 218.272 105.613 218.193 105.837 218.193C106.061 218.193 106.275 218.272 106.434 218.413C106.592 218.554 106.681 218.745 106.681 218.943L106.681 232.443C106.681 232.642 106.592 232.833 106.434 232.974C106.275 233.114 106.061 233.193 105.837 233.193V233.193Z" fill="#15B825"/>
<path fill-rule="evenodd" clip-rule="evenodd" d="M106.435 233.002C106.356 233.081 106.263 233.143 106.16 233.186C106.058 233.228 105.948 233.25 105.837 233.25C105.726 233.25 105.616 233.228 105.513 233.186C105.41 233.143 105.317 233.081 105.239 233.002L100.171 227.934C100.012 227.776 99.9232 227.56 99.9232 227.336C99.9232 227.112 100.012 226.897 100.171 226.738C100.33 226.58 100.545 226.49 100.769 226.49C100.993 226.49 101.208 226.58 101.367 226.738L105.837 231.21L110.306 226.738C110.465 226.58 110.68 226.49 110.904 226.49C111.129 226.49 111.344 226.58 111.502 226.738C111.661 226.897 111.75 227.112 111.75 227.336C111.75 227.56 111.661 227.776 111.502 227.934L106.435 233.002Z" fill="#15B825"/>
<path d="M225.384 256.2C226.188 256.2 226.818 256.392 227.274 256.776C227.73 257.16 227.958 257.688 227.958 258.36C227.958 259.032 227.73 259.56 227.274 259.944C226.818 260.322 226.188 260.511 225.384 260.511H223.692V262.5H223.026V256.2H225.384ZM225.366 259.926C225.99 259.926 226.467 259.791 226.797 259.521C227.127 259.245 227.292 258.858 227.292 258.36C227.292 257.85 227.127 257.46 226.797 257.19C226.467 256.914 225.99 256.776 225.366 256.776H223.692V259.926H225.366ZM230.875 257.73C231.493 257.73 231.967 257.886 232.297 258.198C232.627 258.504 232.792 258.96 232.792 259.566V262.5H232.18V261.762C232.036 262.008 231.823 262.2 231.541 262.338C231.265 262.476 230.935 262.545 230.551 262.545C230.023 262.545 229.603 262.419 229.291 262.167C228.979 261.915 228.823 261.582 228.823 261.168C228.823 260.766 228.967 260.442 229.255 260.196C229.549 259.95 230.014 259.827 230.65 259.827H232.153V259.539C232.153 259.131 232.039 258.822 231.811 258.612C231.583 258.396 231.25 258.288 230.812 258.288C230.512 258.288 230.224 258.339 229.948 258.441C229.672 258.537 229.435 258.672 229.237 258.846L228.949 258.369C229.189 258.165 229.477 258.009 229.813 257.901C230.149 257.787 230.503 257.73 230.875 257.73ZM230.65 262.041C231.01 262.041 231.319 261.96 231.577 261.798C231.835 261.63 232.027 261.39 232.153 261.078V260.304H230.668C229.858 260.304 229.453 260.586 229.453 261.15C229.453 261.426 229.558 261.645 229.768 261.807C229.978 261.963 230.272 262.041 230.65 262.041ZM238.418 257.766L236.051 263.067C235.859 263.511 235.637 263.826 235.385 264.012C235.133 264.198 234.83 264.291 234.476 264.291C234.248 264.291 234.035 264.255 233.837 264.183C233.639 264.111 233.468 264.003 233.324 263.859L233.621 263.382C233.861 263.622 234.149 263.742 234.485 263.742C234.701 263.742 234.884 263.682 235.034 263.562C235.19 263.442 235.334 263.238 235.466 262.95L235.673 262.491L233.558 257.766H234.224L236.006 261.789L237.788 257.766H238.418ZM245.222 257.73C245.816 257.73 246.281 257.901 246.617 258.243C246.959 258.585 247.13 259.089 247.13 259.755V262.5H246.491V259.818C246.491 259.326 246.371 258.951 246.131 258.693C245.897 258.435 245.564 258.306 245.132 258.306C244.64 258.306 244.253 258.459 243.971 258.765C243.689 259.065 243.548 259.482 243.548 260.016V262.5H242.909V259.818C242.909 259.326 242.789 258.951 242.549 258.693C242.315 258.435 241.979 258.306 241.541 258.306C241.055 258.306 240.668 258.459 240.38 258.765C240.098 259.065 239.957 259.482 239.957 260.016V262.5H239.318V257.766H239.93V258.63C240.098 258.342 240.332 258.12 240.632 257.964C240.932 257.808 241.277 257.73 241.667 257.73C242.063 257.73 242.405 257.814 242.693 257.982C242.987 258.15 243.206 258.399 243.35 258.729C243.524 258.417 243.773 258.174 244.097 258C244.427 257.82 244.802 257.73 245.222 257.73ZM253.002 260.331H249.042C249.078 260.823 249.267 261.222 249.609 261.528C249.951 261.828 250.383 261.978 250.905 261.978C251.199 261.978 251.469 261.927 251.715 261.825C251.961 261.717 252.174 261.561 252.354 261.357L252.714 261.771C252.504 262.023 252.24 262.215 251.922 262.347C251.61 262.479 251.265 262.545 250.887 262.545C250.401 262.545 249.969 262.443 249.591 262.239C249.219 262.029 248.928 261.741 248.718 261.375C248.508 261.009 248.403 260.595 248.403 260.133C248.403 259.671 248.502 259.257 248.7 258.891C248.904 258.525 249.18 258.24 249.528 258.036C249.882 257.832 250.278 257.73 250.716 257.73C251.154 257.73 251.547 257.832 251.895 258.036C252.243 258.24 252.516 258.525 252.714 258.891C252.912 259.251 253.011 259.665 253.011 260.133L253.002 260.331ZM250.716 258.279C250.26 258.279 249.876 258.426 249.564 258.72C249.258 259.008 249.084 259.386 249.042 259.854H252.399C252.357 259.386 252.18 259.008 251.868 258.72C251.562 258.426 251.178 258.279 250.716 258.279ZM256.724 257.73C257.318 257.73 257.789 257.904 258.137 258.252C258.491 258.594 258.668 259.095 258.668 259.755V262.5H258.029V259.818C258.029 259.326 257.906 258.951 257.66 258.693C257.414 258.435 257.063 258.306 256.607 258.306C256.097 258.306 255.692 258.459 255.392 258.765C255.098 259.065 254.951 259.482 254.951 260.016V262.5H254.312V257.766H254.924V258.639C255.098 258.351 255.338 258.129 255.644 257.973C255.956 257.811 256.316 257.73 256.724 257.73ZM262.896 262.212C262.776 262.32 262.626 262.404 262.446 262.464C262.272 262.518 262.089 262.545 261.897 262.545C261.453 262.545 261.111 262.425 260.871 262.185C260.631 261.945 260.511 261.606 260.511 261.168V258.306H259.665V257.766H260.511V256.731H261.15V257.766H262.59V258.306H261.15V261.132C261.15 261.414 261.219 261.63 261.357 261.78C261.501 261.924 261.705 261.996 261.969 261.996C262.101 261.996 262.227 261.975 262.347 261.933C262.473 261.891 262.581 261.831 262.671 261.753L262.896 262.212Z" fill="white"/>
<rect x="223.5" y="205.5" width="39" height="39" rx="7.5" fill="#23265A"/>
<path d="M246.806 218.781H248.837C249.115 218.781 249.34 219.006 249.34 219.284V221.315C249.34 221.668 249.627 221.955 249.981 221.955C250.334 221.955 250.621 221.668 250.621 221.315V219.284C250.621 218.3 249.821 217.5 248.837 217.5H246.806C246.453 217.5 246.166 217.787 246.166 218.14C246.166 218.494 246.453 218.781 246.806 218.781Z" fill="white"/>
<path d="M235.679 219.284V221.315C235.679 221.668 235.966 221.955 236.32 221.955C236.673 221.955 236.96 221.668 236.96 221.315V219.284C236.96 219.006 237.186 218.781 237.463 218.781H239.494C239.848 218.781 240.134 218.494 240.134 218.14C240.134 217.787 239.848 217.5 239.494 217.5H237.463C236.48 217.5 235.679 218.3 235.679 219.284Z" fill="white"/>
<path d="M239.494 231.161H237.463C237.186 231.161 236.96 230.935 236.96 230.658V228.627C236.96 228.273 236.673 227.986 236.32 227.986C235.966 227.986 235.679 228.273 235.679 228.627V230.658C235.679 231.641 236.48 232.441 237.463 232.441H239.494C239.848 232.441 240.134 232.155 240.134 231.801C240.134 231.447 239.848 231.161 239.494 231.161Z" fill="white"/>
<path d="M250.621 230.658V228.627C250.621 228.273 250.334 227.986 249.981 227.986C249.627 227.986 249.34 228.273 249.34 228.627V230.658C249.34 230.935 249.115 231.161 248.837 231.161H246.806C246.453 231.161 246.166 231.447 246.166 231.801C246.166 232.155 246.453 232.441 246.806 232.441H248.837C249.821 232.441 250.621 231.641 250.621 230.658Z" fill="white"/>
<path d="M235.5 225.56C235.5 225.862 235.702 226.106 235.95 226.106H250.35C250.599 226.106 250.8 225.862 250.8 225.56C250.8 225.258 250.599 225.013 250.35 225.013H235.95C235.702 225.013 235.5 225.258 235.5 225.56Z" fill="white"/>
<path d="M162 256.776H159.786V256.2H164.88V256.776H162.666V262.5H162V256.776ZM167.252 262.545C166.796 262.545 166.385 262.443 166.019 262.239C165.653 262.029 165.365 261.741 165.155 261.375C164.945 261.009 164.84 260.595 164.84 260.133C164.84 259.671 164.945 259.257 165.155 258.891C165.365 258.525 165.653 258.24 166.019 258.036C166.385 257.832 166.796 257.73 167.252 257.73C167.708 257.73 168.119 257.832 168.485 258.036C168.851 258.24 169.136 258.525 169.34 258.891C169.55 259.257 169.655 259.671 169.655 260.133C169.655 260.595 169.55 261.009 169.34 261.375C169.136 261.741 168.851 262.029 168.485 262.239C168.119 262.443 167.708 262.545 167.252 262.545ZM167.252 261.978C167.588 261.978 167.888 261.903 168.152 261.753C168.422 261.597 168.632 261.378 168.782 261.096C168.932 260.814 169.007 260.493 169.007 260.133C169.007 259.773 168.932 259.452 168.782 259.17C168.632 258.888 168.422 258.672 168.152 258.522C167.888 258.366 167.588 258.288 167.252 258.288C166.916 258.288 166.613 258.366 166.343 258.522C166.079 258.672 165.869 258.888 165.713 259.17C165.563 259.452 165.488 259.773 165.488 260.133C165.488 260.493 165.563 260.814 165.713 261.096C165.869 261.378 166.079 261.597 166.343 261.753C166.613 261.903 166.916 261.978 167.252 261.978ZM173.398 257.73C173.842 257.73 174.244 257.832 174.604 258.036C174.964 258.234 175.246 258.516 175.45 258.882C175.654 259.248 175.756 259.665 175.756 260.133C175.756 260.607 175.654 261.027 175.45 261.393C175.246 261.759 174.964 262.044 174.604 262.248C174.25 262.446 173.848 262.545 173.398 262.545C173.014 262.545 172.666 262.467 172.354 262.311C172.048 262.149 171.796 261.915 171.598 261.609V264.246H170.959V257.766H171.571V258.702C171.763 258.39 172.015 258.15 172.327 257.982C172.645 257.814 173.002 257.73 173.398 257.73ZM173.353 261.978C173.683 261.978 173.983 261.903 174.253 261.753C174.523 261.597 174.733 261.378 174.883 261.096C175.039 260.814 175.117 260.493 175.117 260.133C175.117 259.773 175.039 259.455 174.883 259.179C174.733 258.897 174.523 258.678 174.253 258.522C173.983 258.366 173.683 258.288 173.353 258.288C173.017 258.288 172.714 258.366 172.444 258.522C172.18 258.678 171.97 258.897 171.814 259.179C171.664 259.455 171.589 259.773 171.589 260.133C171.589 260.493 171.664 260.814 171.814 261.096C171.97 261.378 172.18 261.597 172.444 261.753C172.714 261.903 173.017 261.978 173.353 261.978ZM181.325 257.766V262.5H180.713V261.636C180.545 261.924 180.314 262.149 180.02 262.311C179.726 262.467 179.39 262.545 179.012 262.545C178.394 262.545 177.905 262.374 177.545 262.032C177.191 261.684 177.014 261.177 177.014 260.511V257.766H177.653V260.448C177.653 260.946 177.776 261.324 178.022 261.582C178.268 261.84 178.619 261.969 179.075 261.969C179.573 261.969 179.966 261.819 180.254 261.519C180.542 261.213 180.686 260.79 180.686 260.25V257.766H181.325ZM185.554 257.73C185.998 257.73 186.4 257.832 186.76 258.036C187.12 258.234 187.402 258.516 187.606 258.882C187.81 259.248 187.912 259.665 187.912 260.133C187.912 260.607 187.81 261.027 187.606 261.393C187.402 261.759 187.12 262.044 186.76 262.248C186.406 262.446 186.004 262.545 185.554 262.545C185.17 262.545 184.822 262.467 184.51 262.311C184.204 262.149 183.952 261.915 183.754 261.609V264.246H183.115V257.766H183.727V258.702C183.919 258.39 184.171 258.15 184.483 257.982C184.801 257.814 185.158 257.73 185.554 257.73ZM185.509 261.978C185.839 261.978 186.139 261.903 186.409 261.753C186.679 261.597 186.889 261.378 187.039 261.096C187.195 260.814 187.273 260.493 187.273 260.133C187.273 259.773 187.195 259.455 187.039 259.179C186.889 258.897 186.679 258.678 186.409 258.522C186.139 258.366 185.839 258.288 185.509 258.288C185.173 258.288 184.87 258.366 184.6 258.522C184.336 258.678 184.126 258.897 183.97 259.179C183.82 259.455 183.745 259.773 183.745 260.133C183.745 260.493 183.82 260.814 183.97 261.096C184.126 261.378 184.336 261.597 184.6 261.753C184.87 261.903 185.173 261.978 185.509 261.978Z" fill="white"/>
<rect x="154.5" y="205.5" width="39" height="39" rx="7.5" fill="#23265A"/>
<path d="M179.639 221.095C179.447 219.952 178.88 218.908 178.014 218.116C177.052 217.235 175.801 216.75 174.498 216.75C173.491 216.75 172.51 217.039 171.67 217.583C170.97 218.034 170.389 218.645 169.978 219.363C169.801 219.33 169.616 219.311 169.431 219.311C167.857 219.311 166.577 220.592 166.577 222.165C166.577 222.369 166.599 222.565 166.636 222.757C165.618 223.498 165 224.69 165 225.959C165 226.984 165.381 227.98 166.077 228.769C166.791 229.575 167.735 230.053 168.742 230.108C168.753 230.108 168.761 230.108 168.772 230.108H171.955C172.233 230.108 172.455 229.886 172.455 229.609C172.455 229.331 172.233 229.109 171.955 229.109H168.787C167.273 229.017 165.999 227.577 165.999 225.955C165.999 224.908 166.562 223.931 167.469 223.401C167.68 223.279 167.769 223.024 167.687 222.794C167.613 222.595 167.576 222.384 167.576 222.158C167.576 221.136 168.409 220.303 169.431 220.303C169.649 220.303 169.864 220.34 170.064 220.414C170.308 220.503 170.578 220.392 170.689 220.159C171.381 218.69 172.877 217.742 174.502 217.742C176.685 217.742 178.488 219.378 178.695 221.547C178.717 221.773 178.888 221.954 179.11 221.991C180.757 222.273 182.001 223.794 182.001 225.53C182.001 227.369 180.553 228.968 178.769 229.105H176.041C175.764 229.105 175.542 229.327 175.542 229.605C175.542 229.883 175.764 230.105 176.041 230.105H178.788C178.799 230.105 178.81 230.105 178.825 230.105C179.954 230.023 181.009 229.505 181.793 228.639C182.574 227.78 183 226.677 183 225.53C182.996 223.453 181.579 221.606 179.639 221.095Z" fill="white"/>
<path d="M177 226.433C177.196 226.237 177.196 225.922 177 225.726L174.353 223.079C174.261 222.987 174.131 222.931 174.001 222.931C173.872 222.931 173.742 222.983 173.65 223.079L171.003 225.726C170.807 225.922 170.807 226.237 171.003 226.433C171.1 226.529 171.229 226.581 171.355 226.581C171.481 226.581 171.61 226.533 171.707 226.433L173.502 224.638V232.888C173.502 233.166 173.724 233.388 174.001 233.388C174.279 233.388 174.501 233.166 174.501 232.888V224.638L176.296 226.433C176.489 226.629 176.803 226.629 177 226.433Z" fill="white"/>
</g>
<defs>
<clipPath id="clip0_29_810">
<rect width="281.25" height="285" fill="white"/>
</clipPath>
</defs>
</svg>