<svg width="282" height="198" viewBox="0 0 282 198" fill="none" xmlns="http://www.w3.org/2000/svg">
<rect width="281.25" height="197.25" fill="#0B0620"/>
<path d="M21 21.868H18.048V21.1H24.84V21.868H21.888V29.5H21V21.868ZM28.0024 29.56C27.3944 29.56 26.8464 29.424 26.3584 29.152C25.8704 28.872 25.4864 28.488 25.2064 28C24.9264 27.512 24.7864 26.96 24.7864 26.344C24.7864 25.728 24.9264 25.176 25.2064 24.688C25.4864 24.2 25.8704 23.82 26.3584 23.548C26.8464 23.276 27.3944 23.14 28.0024 23.14C28.6104 23.14 29.1584 23.276 29.6464 23.548C30.1344 23.82 30.5144 24.2 30.7864 24.688C31.0664 25.176 31.2064 25.728 31.2064 26.344C31.2064 26.96 31.0664 27.512 30.7864 28C30.5144 28.488 30.1344 28.872 29.6464 29.152C29.1584 29.424 28.6104 29.56 28.0024 29.56ZM28.0024 28.804C28.4504 28.804 28.8504 28.704 29.2024 28.504C29.5624 28.296 29.8424 28.004 30.0424 27.628C30.2424 27.252 30.3424 26.824 30.3424 26.344C30.3424 25.864 30.2424 25.436 30.0424 25.06C29.8424 24.684 29.5624 24.396 29.2024 24.196C28.8504 23.988 28.4504 23.884 28.0024 23.884C27.5544 23.884 27.1504 23.988 26.7904 24.196C26.4384 24.396 26.1584 24.684 25.9504 25.06C25.7504 25.436 25.6504 25.864 25.6504 26.344C25.6504 26.824 25.7504 27.252 25.9504 27.628C26.1584 28.004 26.4384 28.296 26.7904 28.504C27.1504 28.704 27.5544 28.804 28.0024 28.804ZM36.2698 29.116C36.1098 29.26 35.9098 29.372 35.6698 29.452C35.4378 29.524 35.1938 29.56 34.9378 29.56C34.3458 29.56 33.8898 29.4 33.5698 29.08C33.2498 28.76 33.0898 28.308 33.0898 27.724V23.908H31.9618V23.188H33.0898V21.808H33.9418V23.188H35.8618V23.908H33.9418V27.676C33.9418 28.052 34.0338 28.34 34.2178 28.54C34.4098 28.732 34.6818 28.828 35.0338 28.828C35.2098 28.828 35.3778 28.8 35.5378 28.744C35.7058 28.688 35.8498 28.608 35.9698 28.504L36.2698 29.116ZM40.0288 23.14C40.8528 23.14 41.4848 23.348 41.9248 23.764C42.3648 24.172 42.5848 24.78 42.5848 25.588V29.5H41.7688V28.516C41.5768 28.844 41.2928 29.1 40.9168 29.284C40.5488 29.468 40.1088 29.56 39.5968 29.56C38.8928 29.56 38.3328 29.392 37.9168 29.056C37.5008 28.72 37.2928 28.276 37.2928 27.724C37.2928 27.188 37.4848 26.756 37.8688 26.428C38.2608 26.1 38.8808 25.936 39.7288 25.936H41.7328V25.552C41.7328 25.008 41.5808 24.596 41.2768 24.316C40.9728 24.028 40.5288 23.884 39.9448 23.884C39.5448 23.884 39.1608 23.952 38.7928 24.088C38.4248 24.216 38.1088 24.396 37.8448 24.628L37.4608 23.992C37.7808 23.72 38.1648 23.512 38.6128 23.368C39.0608 23.216 39.5328 23.14 40.0288 23.14ZM39.7288 28.888C40.2088 28.888 40.6208 28.78 40.9648 28.564C41.3088 28.34 41.5648 28.02 41.7328 27.604V26.572H39.7528C38.6728 26.572 38.1328 26.948 38.1328 27.7C38.1328 28.068 38.2728 28.36 38.5528 28.576C38.8328 28.784 39.2248 28.888 39.7288 28.888ZM44.8989 20.596H45.7509V29.5H44.8989V20.596ZM56.7342 25.168C57.2862 25.288 57.7102 25.528 58.0062 25.888C58.3102 26.24 58.4622 26.696 58.4622 27.256C58.4622 27.976 58.1942 28.532 57.6582 28.924C57.1302 29.308 56.3462 29.5 55.3062 29.5H51.4422V21.1H55.0662C56.0022 21.1 56.7262 21.288 57.2382 21.664C57.7582 22.04 58.0182 22.572 58.0182 23.26C58.0182 23.724 57.9022 24.12 57.6702 24.448C57.4462 24.768 57.1342 25.008 56.7342 25.168ZM52.3302 21.832V24.88H55.0062C55.6862 24.88 56.2102 24.752 56.5782 24.496C56.9462 24.232 57.1302 23.852 57.1302 23.356C57.1302 22.86 56.9462 22.484 56.5782 22.228C56.2102 21.964 55.6862 21.832 55.0062 21.832H52.3302ZM55.2942 28.768C56.0462 28.768 56.6142 28.64 56.9982 28.384C57.3822 28.128 57.5742 27.728 57.5742 27.184C57.5742 26.136 56.8142 25.612 55.2942 25.612H52.3302V28.768H55.2942ZM62.5171 23.14C63.3411 23.14 63.9731 23.348 64.4131 23.764C64.8531 24.172 65.0731 24.78 65.0731 25.588V29.5H64.2571V28.516C64.0651 28.844 63.7811 29.1 63.4051 29.284C63.0371 29.468 62.5971 29.56 62.0851 29.56C61.3811 29.56 60.8211 29.392 60.4051 29.056C59.9891 28.72 59.7811 28.276 59.7811 27.724C59.7811 27.188 59.9731 26.756 60.3571 26.428C60.7491 26.1 61.3691 25.936 62.2171 25.936H64.2211V25.552C64.2211 25.008 64.0691 24.596 63.7651 24.316C63.4611 24.028 63.0171 23.884 62.4331 23.884C62.0331 23.884 61.6491 23.952 61.2811 24.088C60.9131 24.216 60.5971 24.396 60.3331 24.628L59.9491 23.992C60.2691 23.72 60.6531 23.512 61.1011 23.368C61.5491 23.216 62.0211 23.14 62.5171 23.14ZM62.2171 28.888C62.6971 28.888 63.1091 28.78 63.4531 28.564C63.7971 28.34 64.0531 28.02 64.2211 27.604V26.572H62.2411C61.1611 26.572 60.6211 26.948 60.6211 27.7C60.6211 28.068 60.7611 28.36 61.0411 28.576C61.3211 28.784 61.7131 28.888 62.2171 28.888ZM67.3872 20.596H68.2392V29.5H67.3872V20.596ZM72.8179 23.14C73.6419 23.14 74.2739 23.348 74.7139 23.764C75.1539 24.172 75.3739 24.78 75.3739 25.588V29.5H74.5579V28.516C74.3659 28.844 74.0819 29.1 73.7059 29.284C73.3379 29.468 72.8979 29.56 72.3859 29.56C71.6819 29.56 71.1219 29.392 70.7059 29.056C70.2899 28.72 70.0819 28.276 70.0819 27.724C70.0819 27.188 70.2739 26.756 70.6579 26.428C71.0499 26.1 71.6699 25.936 72.5179 25.936H74.5219V25.552C74.5219 25.008 74.3699 24.596 74.0659 24.316C73.7619 24.028 73.3179 23.884 72.7339 23.884C72.3339 23.884 71.9499 23.952 71.5819 24.088C71.2139 24.216 70.8979 24.396 70.6339 24.628L70.2499 23.992C70.5699 23.72 70.9539 23.512 71.4019 23.368C71.8499 23.216 72.3219 23.14 72.8179 23.14ZM72.5179 28.888C72.9979 28.888 73.4099 28.78 73.7539 28.564C74.0979 28.34 74.3539 28.02 74.5219 27.604V26.572H72.5419C71.4619 26.572 70.9219 26.948 70.9219 27.7C70.9219 28.068 71.0619 28.36 71.3419 28.576C71.6219 28.784 72.0139 28.888 72.5179 28.888ZM80.904 23.14C81.696 23.14 82.324 23.372 82.788 23.836C83.26 24.292 83.496 24.96 83.496 25.84V29.5H82.644V25.924C82.644 25.268 82.48 24.768 82.152 24.424C81.824 24.08 81.356 23.908 80.748 23.908C80.068 23.908 79.528 24.112 79.128 24.52C78.736 24.92 78.54 25.476 78.54 26.188V29.5H77.688V23.188H78.504V24.352C78.736 23.968 79.056 23.672 79.464 23.464C79.88 23.248 80.36 23.14 80.904 23.14ZM88.4485 29.56C87.8245 29.56 87.2645 29.424 86.7685 29.152C86.2805 28.88 85.8965 28.5 85.6165 28.012C85.3365 27.516 85.1965 26.96 85.1965 26.344C85.1965 25.728 85.3365 25.176 85.6165 24.688C85.8965 24.2 86.2805 23.82 86.7685 23.548C87.2645 23.276 87.8245 23.14 88.4485 23.14C88.9925 23.14 89.4765 23.248 89.9005 23.464C90.3325 23.672 90.6725 23.98 90.9205 24.388L90.2845 24.82C90.0765 24.508 89.8125 24.276 89.4925 24.124C89.1725 23.964 88.8245 23.884 88.4485 23.884C87.9925 23.884 87.5805 23.988 87.2125 24.196C86.8525 24.396 86.5685 24.684 86.3605 25.06C86.1605 25.436 86.0605 25.864 86.0605 26.344C86.0605 26.832 86.1605 27.264 86.3605 27.64C86.5685 28.008 86.8525 28.296 87.2125 28.504C87.5805 28.704 87.9925 28.804 88.4485 28.804C88.8245 28.804 89.1725 28.728 89.4925 28.576C89.8125 28.424 90.0765 28.192 90.2845 27.88L90.9205 28.312C90.6725 28.72 90.3325 29.032 89.9005 29.248C89.4685 29.456 88.9845 29.56 88.4485 29.56ZM97.9848 26.608H92.7048C92.7528 27.264 93.0048 27.796 93.4608 28.204C93.9168 28.604 94.4928 28.804 95.1888 28.804C95.5808 28.804 95.9408 28.736 96.2688 28.6C96.5968 28.456 96.8808 28.248 97.1208 27.976L97.6008 28.528C97.3208 28.864 96.9688 29.12 96.5448 29.296C96.1288 29.472 95.6688 29.56 95.1648 29.56C94.5168 29.56 93.9408 29.424 93.4368 29.152C92.9408 28.872 92.5528 28.488 92.2728 28C91.9928 27.512 91.8528 26.96 91.8528 26.344C91.8528 25.728 91.9848 25.176 92.2488 24.688C92.5208 24.2 92.8888 23.82 93.3528 23.548C93.8248 23.276 94.3528 23.14 94.9368 23.14C95.5208 23.14 96.0448 23.276 96.5088 23.548C96.9728 23.82 97.3368 24.2 97.6008 24.688C97.8648 25.168 97.9968 25.72 97.9968 26.344L97.9848 26.608ZM94.9368 23.872C94.3288 23.872 93.8168 24.068 93.4008 24.46C92.9928 24.844 92.7608 25.348 92.7048 25.972H97.1808C97.1248 25.348 96.8888 24.844 96.4728 24.46C96.0648 24.068 95.5528 23.872 94.9368 23.872Z" fill="#CACACA"/>
<path d="M28.44 55.062C28.44 56.01 28.08 56.814 27.36 57.474C26.652 58.134 25.62 58.518 24.264 58.626V60.66H23.112V58.626C22.236 58.578 21.402 58.416 20.61 58.14C19.83 57.852 19.206 57.492 18.738 57.06L19.404 55.656C19.836 56.052 20.382 56.382 21.042 56.646C21.702 56.898 22.392 57.048 23.112 57.096V52.92C22.272 52.716 21.57 52.494 21.006 52.254C20.454 52.014 19.986 51.66 19.602 51.192C19.23 50.724 19.044 50.112 19.044 49.356C19.044 48.408 19.386 47.604 20.07 46.944C20.766 46.284 21.78 45.9 23.112 45.792V43.74H24.264V45.774C24.948 45.798 25.608 45.906 26.244 46.098C26.892 46.29 27.45 46.548 27.918 46.872L27.324 48.312C26.352 47.7 25.332 47.364 24.264 47.304V51.498C25.14 51.714 25.86 51.942 26.424 52.182C26.988 52.41 27.462 52.758 27.846 53.226C28.242 53.682 28.44 54.294 28.44 55.062ZM20.808 49.284C20.808 49.8 21.006 50.202 21.402 50.49C21.798 50.778 22.368 51.018 23.112 51.21V47.322C22.344 47.418 21.768 47.646 21.384 48.006C21 48.354 20.808 48.78 20.808 49.284ZM24.264 57.078C25.068 57.006 25.668 56.802 26.064 56.466C26.472 56.118 26.676 55.686 26.676 55.17C26.676 54.642 26.466 54.24 26.046 53.964C25.638 53.676 25.044 53.424 24.264 53.208V57.078ZM40.3137 50.85C41.1417 50.85 41.8797 51.006 42.5277 51.318C43.1877 51.63 43.7037 52.08 44.0757 52.668C44.4477 53.244 44.6337 53.91 44.6337 54.666C44.6337 55.458 44.4357 56.154 44.0397 56.754C43.6557 57.354 43.1217 57.822 42.4377 58.158C41.7657 58.482 41.0097 58.644 40.1697 58.644C38.4777 58.644 37.1697 58.098 36.2457 57.006C35.3337 55.914 34.8777 54.366 34.8777 52.362C34.8777 50.958 35.1237 49.764 35.6157 48.78C36.1197 47.784 36.8157 47.034 37.7037 46.53C38.6037 46.014 39.6477 45.756 40.8357 45.756C41.4477 45.756 42.0237 45.822 42.5637 45.954C43.1037 46.074 43.5717 46.254 43.9677 46.494L43.2837 47.898C42.6837 47.502 41.8797 47.304 40.8717 47.304C39.5637 47.304 38.5377 47.712 37.7937 48.528C37.0497 49.332 36.6777 50.508 36.6777 52.056C36.6777 52.248 36.6837 52.398 36.6957 52.506C37.0557 51.966 37.5477 51.558 38.1717 51.282C38.8077 50.994 39.5217 50.85 40.3137 50.85ZM40.0977 57.186C40.9257 57.186 41.5977 56.964 42.1137 56.52C42.6297 56.076 42.8877 55.482 42.8877 54.738C42.8877 53.994 42.6237 53.406 42.0957 52.974C41.5797 52.53 40.8837 52.308 40.0077 52.308C39.4437 52.308 38.9397 52.416 38.4957 52.632C38.0637 52.848 37.7217 53.142 37.4697 53.514C37.2297 53.886 37.1097 54.3 37.1097 54.756C37.1097 55.2 37.2237 55.608 37.4517 55.98C37.6917 56.34 38.0337 56.634 38.4777 56.862C38.9337 57.078 39.4737 57.186 40.0977 57.186ZM49.587 50.922C51.387 50.922 52.707 51.264 53.547 51.948C54.399 52.62 54.825 53.544 54.825 54.72C54.825 55.464 54.645 56.136 54.285 56.736C53.937 57.324 53.403 57.792 52.683 58.14C51.975 58.476 51.099 58.644 50.055 58.644C49.167 58.644 48.309 58.512 47.481 58.248C46.653 57.972 45.969 57.594 45.429 57.114L46.257 55.692C46.689 56.1 47.241 56.43 47.913 56.682C48.585 56.922 49.293 57.042 50.037 57.042C50.985 57.042 51.717 56.844 52.233 56.448C52.761 56.04 53.025 55.488 53.025 54.792C53.025 54.036 52.737 53.466 52.161 53.082C51.585 52.686 50.601 52.488 49.209 52.488H46.347L47.013 45.9H54.123V47.466H48.525L48.183 50.922H49.587ZM67.285 55.404H64.891V58.5H63.145V55.404H56.143V54.144L62.587 45.9H64.531L58.357 53.856H63.199V51.12H64.891V53.856H67.285V55.404ZM69.9216 56.142C70.2576 56.142 70.5336 56.262 70.7496 56.502C70.9776 56.73 71.0916 57.018 71.0916 57.366C71.0916 57.546 71.0676 57.72 71.0196 57.888C70.9836 58.056 70.9056 58.314 70.7856 58.662L69.9396 61.164H68.8056L69.4716 58.482C69.2436 58.398 69.0576 58.26 68.9136 58.068C68.7816 57.864 68.7156 57.63 68.7156 57.366C68.7156 57.006 68.8296 56.712 69.0576 56.484C69.2856 56.256 69.5736 56.142 69.9216 56.142ZM77.7308 58.644C76.7348 58.644 75.8468 58.392 75.0668 57.888C74.2988 57.372 73.6928 56.628 73.2488 55.656C72.8048 54.684 72.5828 53.532 72.5828 52.2C72.5828 50.868 72.8048 49.716 73.2488 48.744C73.6928 47.772 74.2988 47.034 75.0668 46.53C75.8468 46.014 76.7348 45.756 77.7308 45.756C78.7148 45.756 79.5908 46.014 80.3588 46.53C81.1388 47.034 81.7508 47.772 82.1948 48.744C82.6388 49.716 82.8608 50.868 82.8608 52.2C82.8608 53.532 82.6388 54.684 82.1948 55.656C81.7508 56.628 81.1388 57.372 80.3588 57.888C79.5908 58.392 78.7148 58.644 77.7308 58.644ZM77.7308 57.042C78.7388 57.042 79.5428 56.628 80.1428 55.8C80.7548 54.972 81.0608 53.772 81.0608 52.2C81.0608 50.628 80.7548 49.428 80.1428 48.6C79.5428 47.772 78.7388 47.358 77.7308 47.358C76.7108 47.358 75.8948 47.772 75.2828 48.6C74.6828 49.428 74.3828 50.628 74.3828 52.2C74.3828 53.772 74.6828 54.972 75.2828 55.8C75.8948 56.628 76.7108 57.042 77.7308 57.042ZM89.7366 58.644C88.7406 58.644 87.8526 58.392 87.0726 57.888C86.3046 57.372 85.6986 56.628 85.2546 55.656C84.8106 54.684 84.5886 53.532 84.5886 52.2C84.5886 50.868 84.8106 49.716 85.2546 48.744C85.6986 47.772 86.3046 47.034 87.0726 46.53C87.8526 46.014 88.7406 45.756 89.7366 45.756C90.7206 45.756 91.5966 46.014 92.3646 46.53C93.1446 47.034 93.7566 47.772 94.2006 48.744C94.6446 49.716 94.8666 50.868 94.8666 52.2C94.8666 53.532 94.6446 54.684 94.2006 55.656C93.7566 56.628 93.1446 57.372 92.3646 57.888C91.5966 58.392 90.7206 58.644 89.7366 58.644ZM89.7366 57.042C90.7446 57.042 91.5486 56.628 92.1486 55.8C92.7606 54.972 93.0666 53.772 93.0666 52.2C93.0666 50.628 92.7606 49.428 92.1486 48.6C91.5486 47.772 90.7446 47.358 89.7366 47.358C88.7166 47.358 87.9006 47.772 87.2886 48.6C86.6886 49.428 86.3886 50.628 86.3886 52.2C86.3886 53.772 86.6886 54.972 87.2886 55.8C87.9006 56.628 88.7166 57.042 89.7366 57.042ZM101.742 58.644C100.746 58.644 99.8585 58.392 99.0785 57.888C98.3105 57.372 97.7045 56.628 97.2605 55.656C96.8165 54.684 96.5945 53.532 96.5945 52.2C96.5945 50.868 96.8165 49.716 97.2605 48.744C97.7045 47.772 98.3105 47.034 99.0785 46.53C99.8585 46.014 100.746 45.756 101.742 45.756C102.726 45.756 103.602 46.014 104.37 46.53C105.15 47.034 105.762 47.772 106.206 48.744C106.65 49.716 106.872 50.868 106.872 52.2C106.872 53.532 106.65 54.684 106.206 55.656C105.762 56.628 105.15 57.372 104.37 57.888C103.602 58.392 102.726 58.644 101.742 58.644ZM101.742 57.042C102.75 57.042 103.554 56.628 104.154 55.8C104.766 54.972 105.072 53.772 105.072 52.2C105.072 50.628 104.766 49.428 104.154 48.6C103.554 47.772 102.75 47.358 101.742 47.358C100.722 47.358 99.9065 47.772 99.2945 48.6C98.6945 49.428 98.3945 50.628 98.3945 52.2C98.3945 53.772 98.6945 54.972 99.2945 55.8C99.9065 56.628 100.722 57.042 101.742 57.042ZM109.577 58.608C109.241 58.608 108.953 58.494 108.713 58.266C108.473 58.026 108.353 57.726 108.353 57.366C108.353 57.018 108.473 56.73 108.713 56.502C108.953 56.262 109.241 56.142 109.577 56.142C109.913 56.142 110.195 56.256 110.423 56.484C110.651 56.712 110.765 57.006 110.765 57.366C110.765 57.726 110.645 58.026 110.405 58.266C110.177 58.494 109.901 58.608 109.577 58.608ZM117.405 58.644C116.409 58.644 115.521 58.392 114.741 57.888C113.973 57.372 113.367 56.628 112.923 55.656C112.479 54.684 112.257 53.532 112.257 52.2C112.257 50.868 112.479 49.716 112.923 48.744C113.367 47.772 113.973 47.034 114.741 46.53C115.521 46.014 116.409 45.756 117.405 45.756C118.389 45.756 119.265 46.014 120.033 46.53C120.813 47.034 121.425 47.772 121.869 48.744C122.313 49.716 122.535 50.868 122.535 52.2C122.535 53.532 122.313 54.684 121.869 55.656C121.425 56.628 120.813 57.372 120.033 57.888C119.265 58.392 118.389 58.644 117.405 58.644ZM117.405 57.042C118.413 57.042 119.217 56.628 119.817 55.8C120.429 54.972 120.735 53.772 120.735 52.2C120.735 50.628 120.429 49.428 119.817 48.6C119.217 47.772 118.413 47.358 117.405 47.358C116.385 47.358 115.569 47.772 114.957 48.6C114.357 49.428 114.057 50.628 114.057 52.2C114.057 53.772 114.357 54.972 114.957 55.8C115.569 56.628 116.385 57.042 117.405 57.042ZM129.41 58.644C128.414 58.644 127.526 58.392 126.746 57.888C125.978 57.372 125.372 56.628 124.928 55.656C124.484 54.684 124.262 53.532 124.262 52.2C124.262 50.868 124.484 49.716 124.928 48.744C125.372 47.772 125.978 47.034 126.746 46.53C127.526 46.014 128.414 45.756 129.41 45.756C130.394 45.756 131.27 46.014 132.038 46.53C132.818 47.034 133.43 47.772 133.874 48.744C134.318 49.716 134.54 50.868 134.54 52.2C134.54 53.532 134.318 54.684 133.874 55.656C133.43 56.628 132.818 57.372 132.038 57.888C131.27 58.392 130.394 58.644 129.41 58.644ZM129.41 57.042C130.418 57.042 131.222 56.628 131.822 55.8C132.434 54.972 132.74 53.772 132.74 52.2C132.74 50.628 132.434 49.428 131.822 48.6C131.222 47.772 130.418 47.358 129.41 47.358C128.39 47.358 127.574 47.772 126.962 48.6C126.362 49.428 126.062 50.628 126.062 52.2C126.062 53.772 126.362 54.972 126.962 55.8C127.574 56.628 128.39 57.042 129.41 57.042Z" fill="white"/>
<rect x="18" y="79.5" width="118.5" height="101.25" rx="15" fill="#23265A"/>
<path d="M32.481 99.924V100.5H28.026V94.2H32.346V94.776H28.692V97.017H31.95V97.584H28.692V99.924H32.481ZM35.4972 95.73C36.1152 95.73 36.5892 95.886 36.9192 96.198C37.2492 96.504 37.4142 96.96 37.4142 97.566V100.5H36.8022V99.762C36.6582 100.008 36.4452 100.2 36.1632 100.338C35.8872 100.476 35.5572 100.545 35.1732 100.545C34.6452 100.545 34.2252 100.419 33.9132 100.167C33.6012 99.915 33.4452 99.582 33.4452 99.168C33.4452 98.766 33.5892 98.442 33.8772 98.196C34.1712 97.95 34.6362 97.827 35.2722 97.827H36.7752V97.539C36.7752 97.131 36.6612 96.822 36.4332 96.612C36.2052 96.396 35.8722 96.288 35.4342 96.288C35.1342 96.288 34.8462 96.339 34.5702 96.441C34.2942 96.537 34.0572 96.672 33.8592 96.846L33.5712 96.369C33.8112 96.165 34.0992 96.009 34.4352 95.901C34.7712 95.787 35.1252 95.73 35.4972 95.73ZM35.2722 100.041C35.6322 100.041 35.9412 99.96 36.1992 99.798C36.4572 99.63 36.6492 99.39 36.7752 99.078V98.304H35.2902C34.4802 98.304 34.0752 98.586 34.0752 99.15C34.0752 99.426 34.1802 99.645 34.3902 99.807C34.6002 99.963 34.8942 100.041 35.2722 100.041ZM39.7618 96.693C39.9118 96.375 40.1338 96.135 40.4278 95.973C40.7278 95.811 41.0968 95.73 41.5348 95.73V96.351L41.3818 96.342C40.8838 96.342 40.4938 96.495 40.2118 96.801C39.9298 97.107 39.7888 97.536 39.7888 98.088V100.5H39.1498V95.766H39.7618V96.693ZM45.1038 95.73C45.6978 95.73 46.1688 95.904 46.5168 96.252C46.8708 96.594 47.0478 97.095 47.0478 97.755V100.5H46.4088V97.818C46.4088 97.326 46.2858 96.951 46.0398 96.693C45.7938 96.435 45.4428 96.306 44.9868 96.306C44.4768 96.306 44.0718 96.459 43.7718 96.765C43.4778 97.065 43.3308 97.482 43.3308 98.016V100.5H42.6918V95.766H43.3038V96.639C43.4778 96.351 43.7178 96.129 44.0238 95.973C44.3358 95.811 44.6958 95.73 45.1038 95.73Z" fill="#DADADA"/>
<path d="M119.25 147C115.5 151 105.45 157.8 95.25 153C91.5 150 81 145.5 74.25 156C70.5 160.5 63.75 160.5 55.5 158.25C49.5 156 40.5 159.75 36 165" stroke="#15B825" stroke-width="2.25" stroke-linecap="round"/>
<path d="M33.816 122.53C33.816 123.146 33.58 123.67 33.108 124.102C32.636 124.526 31.944 124.762 31.032 124.81V126.19H30.432V124.822C29.848 124.79 29.296 124.678 28.776 124.486C28.264 124.286 27.86 124.034 27.564 123.73L27.912 123.046C28.192 123.318 28.556 123.546 29.004 123.73C29.46 123.914 29.936 124.022 30.432 124.054V120.898C29.88 120.762 29.42 120.618 29.052 120.466C28.684 120.306 28.376 120.078 28.128 119.782C27.888 119.478 27.768 119.078 27.768 118.582C27.768 117.966 27.992 117.45 28.44 117.034C28.888 116.61 29.552 116.362 30.432 116.29V114.91H31.032V116.278C31.488 116.294 31.928 116.37 32.352 116.506C32.784 116.634 33.156 116.806 33.468 117.022L33.168 117.73C32.84 117.522 32.492 117.358 32.124 117.238C31.756 117.118 31.392 117.05 31.032 117.034V120.214C31.624 120.358 32.108 120.506 32.484 120.658C32.86 120.802 33.176 121.026 33.432 121.33C33.688 121.634 33.816 122.034 33.816 122.53ZM28.644 118.558C28.644 118.974 28.796 119.29 29.1 119.506C29.412 119.722 29.856 119.906 30.432 120.058V117.058C29.84 117.106 29.392 117.27 29.088 117.55C28.792 117.822 28.644 118.158 28.644 118.558ZM31.032 124.054C31.664 124.006 32.14 123.85 32.46 123.586C32.78 123.322 32.94 122.986 32.94 122.578C32.94 122.146 32.776 121.822 32.448 121.606C32.12 121.39 31.648 121.206 31.032 121.054V124.054ZM41.0034 119.95C41.8834 119.998 42.5514 120.238 43.0074 120.67C43.4714 121.094 43.7034 121.65 43.7034 122.338C43.7034 122.818 43.5874 123.246 43.3554 123.622C43.1234 123.99 42.7794 124.282 42.3234 124.498C41.8674 124.714 41.3114 124.822 40.6554 124.822C40.0474 124.822 39.4714 124.726 38.9274 124.534C38.3914 124.334 37.9594 124.07 37.6314 123.742L38.0514 123.058C38.3314 123.346 38.7034 123.582 39.1674 123.766C39.6314 123.942 40.1274 124.03 40.6554 124.03C41.3434 124.03 41.8754 123.882 42.2514 123.586C42.6274 123.282 42.8154 122.866 42.8154 122.338C42.8154 121.818 42.6274 121.41 42.2514 121.114C41.8754 120.818 41.3074 120.67 40.5474 120.67H39.9474V120.034L42.2754 117.118H37.9794V116.35H43.3794V116.962L41.0034 119.95ZM48.4009 119.722C48.9529 119.722 49.4409 119.826 49.8649 120.034C50.2969 120.242 50.6329 120.538 50.8729 120.922C51.1129 121.298 51.2329 121.738 51.2329 122.242C51.2329 122.754 51.1089 123.206 50.8609 123.598C50.6129 123.99 50.2689 124.294 49.8289 124.51C49.3969 124.718 48.9089 124.822 48.3649 124.822C47.2529 124.822 46.4009 124.458 45.8089 123.73C45.2169 122.994 44.9209 121.958 44.9209 120.622C44.9209 119.686 45.0809 118.894 45.4009 118.246C45.7209 117.598 46.1689 117.11 46.7449 116.782C47.3209 116.446 47.9929 116.278 48.7609 116.278C49.5929 116.278 50.2569 116.43 50.7529 116.734L50.4049 117.43C50.0049 117.166 49.4609 117.034 48.7729 117.034C47.8449 117.034 47.1169 117.33 46.5889 117.922C46.0609 118.506 45.7969 119.358 45.7969 120.478C45.7969 120.678 45.8089 120.906 45.8329 121.162C46.0409 120.706 46.3729 120.354 46.8289 120.106C47.2849 119.85 47.8089 119.722 48.4009 119.722ZM48.3289 124.09C48.9369 124.09 49.4289 123.926 49.8049 123.598C50.1889 123.262 50.3809 122.818 50.3809 122.266C50.3809 121.714 50.1889 121.274 49.8049 120.946C49.4289 120.618 48.9169 120.454 48.2689 120.454C47.8449 120.454 47.4689 120.534 47.1409 120.694C46.8209 120.854 46.5689 121.074 46.3849 121.354C46.2009 121.634 46.1089 121.946 46.1089 122.29C46.1089 122.61 46.1929 122.906 46.3609 123.178C46.5369 123.45 46.7929 123.67 47.1289 123.838C47.4649 124.006 47.8649 124.09 48.3289 124.09ZM53.0106 123.502C53.1946 123.502 53.3466 123.566 53.4666 123.694C53.5866 123.814 53.6466 123.966 53.6466 124.15C53.6466 124.246 53.6306 124.35 53.5986 124.462C53.5746 124.574 53.5346 124.702 53.4786 124.846L52.9746 126.502H52.3986L52.8066 124.762C52.6786 124.722 52.5746 124.65 52.4946 124.546C52.4146 124.434 52.3746 124.302 52.3746 124.15C52.3746 123.966 52.4346 123.814 52.5546 123.694C52.6746 123.566 52.8266 123.502 53.0106 123.502ZM58.1126 124.822C57.4646 124.822 56.8846 124.65 56.3726 124.306C55.8686 123.962 55.4726 123.47 55.1846 122.83C54.9046 122.182 54.7646 121.422 54.7646 120.55C54.7646 119.678 54.9046 118.922 55.1846 118.282C55.4726 117.634 55.8686 117.138 56.3726 116.794C56.8846 116.45 57.4646 116.278 58.1126 116.278C58.7606 116.278 59.3366 116.45 59.8406 116.794C60.3526 117.138 60.7526 117.634 61.0406 118.282C61.3286 118.922 61.4726 119.678 61.4726 120.55C61.4726 121.422 61.3286 122.182 61.0406 122.83C60.7526 123.47 60.3526 123.962 59.8406 124.306C59.3366 124.65 58.7606 124.822 58.1126 124.822ZM58.1126 124.03C58.6006 124.03 59.0286 123.894 59.3966 123.622C59.7726 123.35 60.0646 122.954 60.2726 122.434C60.4806 121.914 60.5846 121.286 60.5846 120.55C60.5846 119.814 60.4806 119.186 60.2726 118.666C60.0646 118.146 59.7726 117.75 59.3966 117.478C59.0286 117.206 58.6006 117.07 58.1126 117.07C57.6246 117.07 57.1926 117.206 56.8166 117.478C56.4486 117.75 56.1606 118.146 55.9526 118.666C55.7446 119.186 55.6406 119.814 55.6406 120.55C55.6406 121.286 55.7446 121.914 55.9526 122.434C56.1606 122.954 56.4486 123.35 56.8166 123.622C57.1926 123.894 57.6246 124.03 58.1126 124.03ZM66.0579 124.822C65.4099 124.822 64.8299 124.65 64.3179 124.306C63.8139 123.962 63.4179 123.47 63.1299 122.83C62.8499 122.182 62.7099 121.422 62.7099 120.55C62.7099 119.678 62.8499 118.922 63.1299 118.282C63.4179 117.634 63.8139 117.138 64.3179 116.794C64.8299 116.45 65.4099 116.278 66.0579 116.278C66.7059 116.278 67.2819 116.45 67.7859 116.794C68.2979 117.138 68.6979 117.634 68.9859 118.282C69.2739 118.922 69.4179 119.678 69.4179 120.55C69.4179 121.422 69.2739 122.182 68.9859 122.83C68.6979 123.47 68.2979 123.962 67.7859 124.306C67.2819 124.65 66.7059 124.822 66.0579 124.822ZM66.0579 124.03C66.5459 124.03 66.9739 123.894 67.3419 123.622C67.7179 123.35 68.0099 122.954 68.2179 122.434C68.4259 121.914 68.5299 121.286 68.5299 120.55C68.5299 119.814 68.4259 119.186 68.2179 118.666C68.0099 118.146 67.7179 117.75 67.3419 117.478C66.9739 117.206 66.5459 117.07 66.0579 117.07C65.5699 117.07 65.1379 117.206 64.7619 117.478C64.3939 117.75 64.1059 118.146 63.8979 118.666C63.6899 119.186 63.5859 119.814 63.5859 120.55C63.5859 121.286 63.6899 121.914 63.8979 122.434C64.1059 122.954 64.3939 123.35 64.7619 123.622C65.1379 123.894 65.5699 124.03 66.0579 124.03ZM74.0033 124.822C73.3553 124.822 72.7753 124.65 72.2633 124.306C71.7593 123.962 71.3633 123.47 71.0753 122.83C70.7953 122.182 70.6553 121.422 70.6553 120.55C70.6553 119.678 70.7953 118.922 71.0753 118.282C71.3633 117.634 71.7593 117.138 72.2633 116.794C72.7753 116.45 73.3553 116.278 74.0033 116.278C74.6513 116.278 75.2273 116.45 75.7313 116.794C76.2433 117.138 76.6433 117.634 76.9313 118.282C77.2193 118.922 77.3633 119.678 77.3633 120.55C77.3633 121.422 77.2193 122.182 76.9313 122.83C76.6433 123.47 76.2433 123.962 75.7313 124.306C75.2273 124.65 74.6513 124.822 74.0033 124.822ZM74.0033 124.03C74.4913 124.03 74.9193 123.894 75.2873 123.622C75.6633 123.35 75.9553 122.954 76.1633 122.434C76.3713 121.914 76.4753 121.286 76.4753 120.55C76.4753 119.814 76.3713 119.186 76.1633 118.666C75.9553 118.146 75.6633 117.75 75.2873 117.478C74.9193 117.206 74.4913 117.07 74.0033 117.07C73.5153 117.07 73.0833 117.206 72.7073 117.478C72.3393 117.75 72.0513 118.146 71.8433 118.666C71.6353 119.186 71.5312 119.814 71.5312 120.55C71.5312 121.286 71.6353 121.914 71.8433 122.434C72.0513 122.954 72.3393 123.35 72.7073 123.622C73.0833 123.894 73.5153 124.03 74.0033 124.03ZM79.1197 124.81C78.9437 124.81 78.7917 124.746 78.6637 124.618C78.5437 124.49 78.4837 124.334 78.4837 124.15C78.4837 123.966 78.5437 123.814 78.6637 123.694C78.7917 123.566 78.9437 123.502 79.1197 123.502C79.2957 123.502 79.4477 123.566 79.5757 123.694C79.7037 123.814 79.7677 123.966 79.7677 124.15C79.7677 124.334 79.7037 124.49 79.5757 124.618C79.4477 124.746 79.2957 124.81 79.1197 124.81ZM84.2337 124.822C83.5857 124.822 83.0057 124.65 82.4937 124.306C81.9897 123.962 81.5937 123.47 81.3057 122.83C81.0257 122.182 80.8857 121.422 80.8857 120.55C80.8857 119.678 81.0257 118.922 81.3057 118.282C81.5937 117.634 81.9897 117.138 82.4937 116.794C83.0057 116.45 83.5857 116.278 84.2337 116.278C84.8817 116.278 85.4577 116.45 85.9617 116.794C86.4737 117.138 86.8737 117.634 87.1617 118.282C87.4497 118.922 87.5937 119.678 87.5937 120.55C87.5937 121.422 87.4497 122.182 87.1617 122.83C86.8737 123.47 86.4737 123.962 85.9617 124.306C85.4577 124.65 84.8817 124.822 84.2337 124.822ZM84.2337 124.03C84.7217 124.03 85.1497 123.894 85.5177 123.622C85.8937 123.35 86.1857 122.954 86.3937 122.434C86.6017 121.914 86.7057 121.286 86.7057 120.55C86.7057 119.814 86.6017 119.186 86.3937 118.666C86.1857 118.146 85.8937 117.75 85.5177 117.478C85.1497 117.206 84.7217 117.07 84.2337 117.07C83.7457 117.07 83.3137 117.206 82.9377 117.478C82.5697 117.75 82.2817 118.146 82.0737 118.666C81.8657 119.186 81.7617 119.814 81.7617 120.55C81.7617 121.286 81.8657 121.914 82.0737 122.434C82.2817 122.954 82.5697 123.35 82.9377 123.622C83.3137 123.894 83.7457 124.03 84.2337 124.03ZM92.179 124.822C91.531 124.822 90.951 124.65 90.439 124.306C89.935 123.962 89.539 123.47 89.251 122.83C88.971 122.182 88.831 121.422 88.831 120.55C88.831 119.678 88.971 118.922 89.251 118.282C89.539 117.634 89.935 117.138 90.439 116.794C90.951 116.45 91.531 116.278 92.179 116.278C92.827 116.278 93.403 116.45 93.907 116.794C94.419 117.138 94.819 117.634 95.107 118.282C95.395 118.922 95.539 119.678 95.539 120.55C95.539 121.422 95.395 122.182 95.107 122.83C94.819 123.47 94.419 123.962 93.907 124.306C93.403 124.65 92.827 124.822 92.179 124.822ZM92.179 124.03C92.667 124.03 93.095 123.894 93.463 123.622C93.839 123.35 94.131 122.954 94.339 122.434C94.547 121.914 94.651 121.286 94.651 120.55C94.651 119.814 94.547 119.186 94.339 118.666C94.131 118.146 93.839 117.75 93.463 117.478C93.095 117.206 92.667 117.07 92.179 117.07C91.691 117.07 91.259 117.206 90.883 117.478C90.515 117.75 90.227 118.146 90.019 118.666C89.811 119.186 89.707 119.814 89.707 120.55C89.707 121.286 89.811 121.914 90.019 122.434C90.227 122.954 90.515 123.35 90.883 123.622C91.259 123.894 91.691 124.03 92.179 124.03Z" fill="white"/>
<rect x="144.75" y="79.5" width="118.5" height="101.25" rx="15" fill="#23265A"/>
<path d="M159.513 100.554C159.045 100.554 158.595 100.479 158.163 100.329C157.737 100.179 157.407 99.981 157.173 99.735L157.434 99.222C157.662 99.45 157.965 99.636 158.343 99.78C158.721 99.918 159.111 99.987 159.513 99.987C160.077 99.987 160.5 99.885 160.782 99.681C161.064 99.471 161.205 99.201 161.205 98.871C161.205 98.619 161.127 98.418 160.971 98.268C160.821 98.118 160.635 98.004 160.413 97.926C160.191 97.842 159.882 97.752 159.486 97.656C159.012 97.536 158.634 97.422 158.352 97.314C158.07 97.2 157.827 97.029 157.623 96.801C157.425 96.573 157.326 96.264 157.326 95.874C157.326 95.556 157.41 95.268 157.578 95.01C157.746 94.746 158.004 94.536 158.352 94.38C158.7 94.224 159.132 94.146 159.648 94.146C160.008 94.146 160.359 94.197 160.701 94.299C161.049 94.395 161.349 94.53 161.601 94.704L161.376 95.235C161.112 95.061 160.83 94.932 160.53 94.848C160.23 94.758 159.936 94.713 159.648 94.713C159.096 94.713 158.679 94.821 158.397 95.037C158.121 95.247 157.983 95.52 157.983 95.856C157.983 96.108 158.058 96.312 158.208 96.468C158.364 96.618 158.556 96.735 158.784 96.819C159.018 96.897 159.33 96.984 159.72 97.08C160.182 97.194 160.554 97.308 160.836 97.422C161.124 97.53 161.367 97.698 161.565 97.926C161.763 98.148 161.862 98.451 161.862 98.835C161.862 99.153 161.775 99.444 161.601 99.708C161.433 99.966 161.172 100.173 160.818 100.329C160.464 100.479 160.029 100.554 159.513 100.554ZM165.617 95.73C166.061 95.73 166.463 95.832 166.823 96.036C167.183 96.234 167.465 96.516 167.669 96.882C167.873 97.248 167.975 97.665 167.975 98.133C167.975 98.607 167.873 99.027 167.669 99.393C167.465 99.759 167.183 100.044 166.823 100.248C166.469 100.446 166.067 100.545 165.617 100.545C165.233 100.545 164.885 100.467 164.573 100.311C164.267 100.149 164.015 99.915 163.817 99.609V102.246H163.178V95.766H163.79V96.702C163.982 96.39 164.234 96.15 164.546 95.982C164.864 95.814 165.221 95.73 165.617 95.73ZM165.572 99.978C165.902 99.978 166.202 99.903 166.472 99.753C166.742 99.597 166.952 99.378 167.102 99.096C167.258 98.814 167.336 98.493 167.336 98.133C167.336 97.773 167.258 97.455 167.102 97.179C166.952 96.897 166.742 96.678 166.472 96.522C166.202 96.366 165.902 96.288 165.572 96.288C165.236 96.288 164.933 96.366 164.663 96.522C164.399 96.678 164.189 96.897 164.033 97.179C163.883 97.455 163.808 97.773 163.808 98.133C163.808 98.493 163.883 98.814 164.033 99.096C164.189 99.378 164.399 99.597 164.663 99.753C164.933 99.903 165.236 99.978 165.572 99.978ZM173.4 98.331H169.44C169.476 98.823 169.665 99.222 170.007 99.528C170.349 99.828 170.781 99.978 171.303 99.978C171.597 99.978 171.867 99.927 172.113 99.825C172.359 99.717 172.572 99.561 172.752 99.357L173.112 99.771C172.902 100.023 172.638 100.215 172.32 100.347C172.008 100.479 171.663 100.545 171.285 100.545C170.799 100.545 170.367 100.443 169.989 100.239C169.617 100.029 169.326 99.741 169.116 99.375C168.906 99.009 168.801 98.595 168.801 98.133C168.801 97.671 168.9 97.257 169.098 96.891C169.302 96.525 169.578 96.24 169.926 96.036C170.28 95.832 170.676 95.73 171.114 95.73C171.552 95.73 171.945 95.832 172.293 96.036C172.641 96.24 172.914 96.525 173.112 96.891C173.31 97.251 173.409 97.665 173.409 98.133L173.4 98.331ZM171.114 96.279C170.658 96.279 170.274 96.426 169.962 96.72C169.656 97.008 169.482 97.386 169.44 97.854H172.797C172.755 97.386 172.578 97.008 172.266 96.72C171.96 96.426 171.576 96.279 171.114 96.279ZM177.121 95.73C177.715 95.73 178.186 95.904 178.534 96.252C178.888 96.594 179.065 97.095 179.065 97.755V100.5H178.426V97.818C178.426 97.326 178.303 96.951 178.057 96.693C177.811 96.435 177.46 96.306 177.004 96.306C176.494 96.306 176.089 96.459 175.789 96.765C175.495 97.065 175.348 97.482 175.348 98.016V100.5H174.709V95.766H175.321V96.639C175.495 96.351 175.735 96.129 176.041 95.973C176.353 95.811 176.713 95.73 177.121 95.73ZM185.138 93.822V100.5H184.526V99.564C184.334 99.882 184.079 100.125 183.761 100.293C183.449 100.461 183.095 100.545 182.699 100.545C182.255 100.545 181.853 100.443 181.493 100.239C181.133 100.035 180.851 99.75 180.647 99.384C180.443 99.018 180.341 98.601 180.341 98.133C180.341 97.665 180.443 97.248 180.647 96.882C180.851 96.516 181.133 96.234 181.493 96.036C181.853 95.832 182.255 95.73 182.699 95.73C183.083 95.73 183.428 95.811 183.734 95.973C184.046 96.129 184.301 96.36 184.499 96.666V93.822H185.138ZM182.753 99.978C183.083 99.978 183.38 99.903 183.644 99.753C183.914 99.597 184.124 99.378 184.274 99.096C184.43 98.814 184.508 98.493 184.508 98.133C184.508 97.773 184.43 97.452 184.274 97.17C184.124 96.888 183.914 96.672 183.644 96.522C183.38 96.366 183.083 96.288 182.753 96.288C182.417 96.288 182.114 96.366 181.844 96.522C181.58 96.672 181.37 96.888 181.214 97.17C181.064 97.452 180.989 97.773 180.989 98.133C180.989 98.493 181.064 98.814 181.214 99.096C181.37 99.378 181.58 99.597 181.844 99.753C182.114 99.903 182.417 99.978 182.753 99.978Z" fill="#DADADA"/>
<path d="M168 165C170.413 153.509 187.709 137.505 207.821 151.458C213.294 155.254 224.715 162.62 232.76 154.741C235.274 152.278 240 145.548 240 143.25" stroke="#FF2D2D" stroke-width="1.5"/>
<path d="M163.566 122.53C163.566 123.146 163.33 123.67 162.858 124.102C162.386 124.526 161.694 124.762 160.782 124.81V126.19H160.182V124.822C159.598 124.79 159.046 124.678 158.526 124.486C158.014 124.286 157.61 124.034 157.314 123.73L157.662 123.046C157.942 123.318 158.306 123.546 158.754 123.73C159.21 123.914 159.686 124.022 160.182 124.054V120.898C159.63 120.762 159.17 120.618 158.802 120.466C158.434 120.306 158.126 120.078 157.878 119.782C157.638 119.478 157.518 119.078 157.518 118.582C157.518 117.966 157.742 117.45 158.19 117.034C158.638 116.61 159.302 116.362 160.182 116.29V114.91H160.782V116.278C161.238 116.294 161.678 116.37 162.102 116.506C162.534 116.634 162.906 116.806 163.218 117.022L162.918 117.73C162.59 117.522 162.242 117.358 161.874 117.238C161.506 117.118 161.142 117.05 160.782 117.034V120.214C161.374 120.358 161.858 120.506 162.234 120.658C162.61 120.802 162.926 121.026 163.182 121.33C163.438 121.634 163.566 122.034 163.566 122.53ZM158.394 118.558C158.394 118.974 158.546 119.29 158.85 119.506C159.162 119.722 159.606 119.906 160.182 120.058V117.058C159.59 117.106 159.142 117.27 158.838 117.55C158.542 117.822 158.394 118.158 158.394 118.558ZM160.782 124.054C161.414 124.006 161.89 123.85 162.21 123.586C162.53 123.322 162.69 122.986 162.69 122.578C162.69 122.146 162.526 121.822 162.198 121.606C161.87 121.39 161.398 121.206 160.782 121.054V124.054ZM173.825 116.35V116.962L170.309 124.75H169.373L172.829 117.118H168.509V118.69H167.657V116.35H173.825ZM174.991 123.502C175.175 123.502 175.327 123.566 175.447 123.694C175.567 123.814 175.627 123.966 175.627 124.15C175.627 124.246 175.611 124.35 175.579 124.462C175.555 124.574 175.515 124.702 175.459 124.846L174.955 126.502H174.379L174.787 124.762C174.659 124.722 174.555 124.65 174.475 124.546C174.395 124.434 174.355 124.302 174.355 124.15C174.355 123.966 174.415 123.814 174.535 123.694C174.655 123.566 174.807 123.502 174.991 123.502ZM180.093 124.822C179.445 124.822 178.865 124.65 178.353 124.306C177.849 123.962 177.453 123.47 177.165 122.83C176.885 122.182 176.745 121.422 176.745 120.55C176.745 119.678 176.885 118.922 177.165 118.282C177.453 117.634 177.849 117.138 178.353 116.794C178.865 116.45 179.445 116.278 180.093 116.278C180.741 116.278 181.317 116.45 181.821 116.794C182.333 117.138 182.733 117.634 183.021 118.282C183.309 118.922 183.453 119.678 183.453 120.55C183.453 121.422 183.309 122.182 183.021 122.83C182.733 123.47 182.333 123.962 181.821 124.306C181.317 124.65 180.741 124.822 180.093 124.822ZM180.093 124.03C180.581 124.03 181.009 123.894 181.377 123.622C181.753 123.35 182.045 122.954 182.253 122.434C182.461 121.914 182.565 121.286 182.565 120.55C182.565 119.814 182.461 119.186 182.253 118.666C182.045 118.146 181.753 117.75 181.377 117.478C181.009 117.206 180.581 117.07 180.093 117.07C179.605 117.07 179.173 117.206 178.797 117.478C178.429 117.75 178.141 118.146 177.933 118.666C177.725 119.186 177.621 119.814 177.621 120.55C177.621 121.286 177.725 121.914 177.933 122.434C178.141 122.954 178.429 123.35 178.797 123.622C179.173 123.894 179.605 124.03 180.093 124.03ZM188.038 124.822C187.39 124.822 186.81 124.65 186.298 124.306C185.794 123.962 185.398 123.47 185.11 122.83C184.83 122.182 184.69 121.422 184.69 120.55C184.69 119.678 184.83 118.922 185.11 118.282C185.398 117.634 185.794 117.138 186.298 116.794C186.81 116.45 187.39 116.278 188.038 116.278C188.686 116.278 189.262 116.45 189.766 116.794C190.278 117.138 190.678 117.634 190.966 118.282C191.254 118.922 191.398 119.678 191.398 120.55C191.398 121.422 191.254 122.182 190.966 122.83C190.678 123.47 190.278 123.962 189.766 124.306C189.262 124.65 188.686 124.822 188.038 124.822ZM188.038 124.03C188.526 124.03 188.954 123.894 189.322 123.622C189.698 123.35 189.99 122.954 190.198 122.434C190.406 121.914 190.51 121.286 190.51 120.55C190.51 119.814 190.406 119.186 190.198 118.666C189.99 118.146 189.698 117.75 189.322 117.478C188.954 117.206 188.526 117.07 188.038 117.07C187.55 117.07 187.118 117.206 186.742 117.478C186.374 117.75 186.086 118.146 185.878 118.666C185.67 119.186 185.566 119.814 185.566 120.55C185.566 121.286 185.67 121.914 185.878 122.434C186.086 122.954 186.374 123.35 186.742 123.622C187.118 123.894 187.55 124.03 188.038 124.03ZM195.984 124.822C195.336 124.822 194.756 124.65 194.244 124.306C193.74 123.962 193.344 123.47 193.056 122.83C192.776 122.182 192.636 121.422 192.636 120.55C192.636 119.678 192.776 118.922 193.056 118.282C193.344 117.634 193.74 117.138 194.244 116.794C194.756 116.45 195.336 116.278 195.984 116.278C196.632 116.278 197.208 116.45 197.712 116.794C198.224 117.138 198.624 117.634 198.912 118.282C199.2 118.922 199.344 119.678 199.344 120.55C199.344 121.422 199.2 122.182 198.912 122.83C198.624 123.47 198.224 123.962 197.712 124.306C197.208 124.65 196.632 124.822 195.984 124.822ZM195.984 124.03C196.472 124.03 196.9 123.894 197.268 123.622C197.644 123.35 197.936 122.954 198.144 122.434C198.352 121.914 198.456 121.286 198.456 120.55C198.456 119.814 198.352 119.186 198.144 118.666C197.936 118.146 197.644 117.75 197.268 117.478C196.9 117.206 196.472 117.07 195.984 117.07C195.496 117.07 195.064 117.206 194.688 117.478C194.32 117.75 194.032 118.146 193.824 118.666C193.616 119.186 193.512 119.814 193.512 120.55C193.512 121.286 193.616 121.914 193.824 122.434C194.032 122.954 194.32 123.35 194.688 123.622C195.064 123.894 195.496 124.03 195.984 124.03ZM201.1 124.81C200.924 124.81 200.772 124.746 200.644 124.618C200.524 124.49 200.464 124.334 200.464 124.15C200.464 123.966 200.524 123.814 200.644 123.694C200.772 123.566 200.924 123.502 201.1 123.502C201.276 123.502 201.428 123.566 201.556 123.694C201.684 123.814 201.748 123.966 201.748 124.15C201.748 124.334 201.684 124.49 201.556 124.618C201.428 124.746 201.276 124.81 201.1 124.81ZM206.214 124.822C205.566 124.822 204.986 124.65 204.474 124.306C203.97 123.962 203.574 123.47 203.286 122.83C203.006 122.182 202.866 121.422 202.866 120.55C202.866 119.678 203.006 118.922 203.286 118.282C203.574 117.634 203.97 117.138 204.474 116.794C204.986 116.45 205.566 116.278 206.214 116.278C206.862 116.278 207.438 116.45 207.942 116.794C208.454 117.138 208.854 117.634 209.142 118.282C209.43 118.922 209.574 119.678 209.574 120.55C209.574 121.422 209.43 122.182 209.142 122.83C208.854 123.47 208.454 123.962 207.942 124.306C207.438 124.65 206.862 124.822 206.214 124.822ZM206.214 124.03C206.702 124.03 207.13 123.894 207.498 123.622C207.874 123.35 208.166 122.954 208.374 122.434C208.582 121.914 208.686 121.286 208.686 120.55C208.686 119.814 208.582 119.186 208.374 118.666C208.166 118.146 207.874 117.75 207.498 117.478C207.13 117.206 206.702 117.07 206.214 117.07C205.726 117.07 205.294 117.206 204.918 117.478C204.55 117.75 204.262 118.146 204.054 118.666C203.846 119.186 203.742 119.814 203.742 120.55C203.742 121.286 203.846 121.914 204.054 122.434C204.262 122.954 204.55 123.35 204.918 123.622C205.294 123.894 205.726 124.03 206.214 124.03ZM214.16 124.822C213.512 124.822 212.932 124.65 212.42 124.306C211.916 123.962 211.52 123.47 211.232 122.83C210.952 122.182 210.812 121.422 210.812 120.55C210.812 119.678 210.952 118.922 211.232 118.282C211.52 117.634 211.916 117.138 212.42 116.794C212.932 116.45 213.512 116.278 214.16 116.278C214.808 116.278 215.384 116.45 215.888 116.794C216.4 117.138 216.8 117.634 217.088 118.282C217.376 118.922 217.52 119.678 217.52 120.55C217.52 121.422 217.376 122.182 217.088 122.83C216.8 123.47 216.4 123.962 215.888 124.306C215.384 124.65 214.808 124.822 214.16 124.822ZM214.16 124.03C214.648 124.03 215.076 123.894 215.444 123.622C215.82 123.35 216.112 122.954 216.32 122.434C216.528 121.914 216.632 121.286 216.632 120.55C216.632 119.814 216.528 119.186 216.32 118.666C216.112 118.146 215.82 117.75 215.444 117.478C215.076 117.206 214.648 117.07 214.16 117.07C213.672 117.07 213.24 117.206 212.864 117.478C212.496 117.75 212.208 118.146 212 118.666C211.792 119.186 211.688 119.814 211.688 120.55C211.688 121.286 211.792 121.914 212 122.434C212.208 122.954 212.496 123.35 212.864 123.622C213.24 123.894 213.672 124.03 214.16 124.03Z" fill="white"/>
<path fill-rule="evenodd" clip-rule="evenodd" d="M257.192 47.0377C257.342 47.0377 257.485 47.0904 257.591 47.1842C257.696 47.2779 257.756 47.4051 257.756 47.5377V56.5377C257.756 56.6703 257.696 56.7975 257.591 56.8913C257.485 56.985 257.342 57.0377 257.192 57.0377C257.043 57.0377 256.9 56.985 256.794 56.8913C256.689 56.7975 256.629 56.6703 256.629 56.5377V47.5377C256.629 47.4051 256.689 47.2779 256.794 47.1842C256.9 47.0904 257.043 47.0377 257.192 47.0377V47.0377Z" fill="#15B825"/>
<path fill-rule="evenodd" clip-rule="evenodd" d="M256.794 47.1654C256.846 47.113 256.908 47.0714 256.976 47.043C257.045 47.0146 257.118 47 257.192 47C257.266 47 257.34 47.0146 257.408 47.043C257.476 47.0714 257.539 47.113 257.591 47.1654L260.969 50.5439C261.075 50.6496 261.135 50.793 261.135 50.9425C261.135 51.0921 261.075 51.2355 260.969 51.3412C260.864 51.4469 260.72 51.5063 260.571 51.5063C260.421 51.5063 260.278 51.4469 260.172 51.3412L257.192 48.3603L254.212 51.3412C254.107 51.4469 253.963 51.5063 253.814 51.5063C253.664 51.5063 253.521 51.4469 253.415 51.3412C253.309 51.2355 253.25 51.0921 253.25 50.9425C253.25 50.793 253.309 50.6496 253.415 50.5439L256.794 47.1654Z" fill="#15B825"/>
<path d="M235.02 54.674V55.25H230.601V54.791L233.22 52.226C233.55 51.902 233.772 51.623 233.886 51.389C234.006 51.149 234.066 50.909 234.066 50.669C234.066 50.297 233.937 50.009 233.679 49.805C233.427 49.595 233.064 49.49 232.59 49.49C231.852 49.49 231.279 49.724 230.871 50.192L230.412 49.796C230.658 49.508 230.97 49.286 231.348 49.13C231.732 48.974 232.164 48.896 232.644 48.896C233.286 48.896 233.793 49.049 234.165 49.355C234.543 49.655 234.732 50.069 234.732 50.597C234.732 50.921 234.66 51.233 234.516 51.533C234.372 51.833 234.099 52.178 233.697 52.568L231.555 54.674H235.02ZM238.309 55.304C237.823 55.304 237.388 55.175 237.004 54.917C236.626 54.659 236.329 54.29 236.113 53.81C235.903 53.324 235.798 52.754 235.798 52.1C235.798 51.446 235.903 50.879 236.113 50.399C236.329 49.913 236.626 49.541 237.004 49.283C237.388 49.025 237.823 48.896 238.309 48.896C238.795 48.896 239.227 49.025 239.605 49.283C239.989 49.541 240.289 49.913 240.505 50.399C240.721 50.879 240.829 51.446 240.829 52.1C240.829 52.754 240.721 53.324 240.505 53.81C240.289 54.29 239.989 54.659 239.605 54.917C239.227 55.175 238.795 55.304 238.309 55.304ZM238.309 54.71C238.675 54.71 238.996 54.608 239.272 54.404C239.554 54.2 239.773 53.903 239.929 53.513C240.085 53.123 240.163 52.652 240.163 52.1C240.163 51.548 240.085 51.077 239.929 50.687C239.773 50.297 239.554 50 239.272 49.796C238.996 49.592 238.675 49.49 238.309 49.49C237.943 49.49 237.619 49.592 237.337 49.796C237.061 50 236.845 50.297 236.689 50.687C236.533 51.077 236.455 51.548 236.455 52.1C236.455 52.652 236.533 53.123 236.689 53.513C236.845 53.903 237.061 54.2 237.337 54.404C237.619 54.608 237.943 54.71 238.309 54.71ZM243.089 52.325C242.663 52.325 242.318 52.169 242.054 51.857C241.796 51.539 241.667 51.125 241.667 50.615C241.667 50.105 241.796 49.694 242.054 49.382C242.318 49.064 242.663 48.905 243.089 48.905C243.509 48.905 243.851 49.061 244.115 49.373C244.379 49.685 244.511 50.099 244.511 50.615C244.511 51.131 244.379 51.545 244.115 51.857C243.851 52.169 243.509 52.325 243.089 52.325ZM246.905 48.95H247.436L243.134 55.25H242.603L246.905 48.95ZM243.089 51.92C243.383 51.92 243.617 51.806 243.791 51.578C243.971 51.344 244.061 51.023 244.061 50.615C244.061 50.207 243.971 49.889 243.791 49.661C243.617 49.427 243.383 49.31 243.089 49.31C242.789 49.31 242.552 49.427 242.378 49.661C242.204 49.895 242.117 50.213 242.117 50.615C242.117 51.017 242.204 51.335 242.378 51.569C242.552 51.803 242.789 51.92 243.089 51.92ZM246.95 55.295C246.53 55.295 246.188 55.139 245.924 54.827C245.66 54.509 245.528 54.095 245.528 53.585C245.528 53.075 245.66 52.664 245.924 52.352C246.188 52.034 246.53 51.875 246.95 51.875C247.376 51.875 247.718 52.034 247.976 52.352C248.24 52.664 248.372 53.075 248.372 53.585C248.372 54.095 248.24 54.509 247.976 54.827C247.718 55.139 247.376 55.295 246.95 55.295ZM246.95 54.89C247.25 54.89 247.487 54.773 247.661 54.539C247.835 54.305 247.922 53.987 247.922 53.585C247.922 53.183 247.835 52.865 247.661 52.631C247.487 52.397 247.25 52.28 246.95 52.28C246.656 52.28 246.419 52.397 246.239 52.631C246.065 52.859 245.978 53.177 245.978 53.585C245.978 53.993 246.065 54.314 246.239 54.548C246.419 54.776 246.656 54.89 246.95 54.89Z" fill="white"/>
</svg>