<svg width="246" height="230" viewBox="0 0 246 230" fill="none" xmlns="http://www.w3.org/2000/svg">
<rect width="245.25" height="229.5" fill="#0B0620"/>
<circle cx="123" cy="67.5" r="42.075" stroke="white" stroke-width="14.85"/>
<mask id="path-2-inside-1_29_1069" fill="white">
<path d="M123 25.4594C123 21.3397 126.358 17.9425 130.431 18.561C137.999 19.7101 145.232 22.6045 151.541 27.0568C159.892 32.9498 166.213 41.2833 169.638 50.9129C173.063 60.5426 173.423 70.9963 170.669 80.8388C167.915 90.6813 162.181 99.4299 154.256 105.884C146.331 112.337 136.602 116.179 126.406 116.883C116.21 117.586 106.046 115.116 97.3093 109.811C88.573 104.507 81.693 96.628 77.6137 87.2568C74.5317 80.1767 73.1626 72.507 73.5702 64.8637C73.7896 60.7498 77.7967 58.1493 81.831 58.9838V58.9838C85.8653 59.8183 88.3728 63.7861 88.4212 67.9056C88.475 72.4933 89.4416 77.05 91.2927 81.3023C94.1425 87.8491 98.949 93.3532 105.052 97.059C111.155 100.765 118.256 102.491 125.379 101.999C132.503 101.508 139.299 98.8237 144.836 94.3152C150.373 89.8066 154.378 83.6947 156.302 76.8186C158.226 69.9425 157.975 62.6395 155.582 55.9121C153.189 49.1847 148.773 43.3629 142.939 39.246C139.15 36.5719 134.884 34.7023 130.402 33.7202C126.378 32.8384 123 29.5791 123 25.4594V25.4594Z"/>
</mask>
<path d="M123 25.4594C123 21.3397 126.358 17.9425 130.431 18.561C137.999 19.7101 145.232 22.6045 151.541 27.0568C159.892 32.9498 166.213 41.2833 169.638 50.9129C173.063 60.5426 173.423 70.9963 170.669 80.8388C167.915 90.6813 162.181 99.4299 154.256 105.884C146.331 112.337 136.602 116.179 126.406 116.883C116.21 117.586 106.046 115.116 97.3093 109.811C88.573 104.507 81.693 96.628 77.6137 87.2568C74.5317 80.1767 73.1626 72.507 73.5702 64.8637C73.7896 60.7498 77.7967 58.1493 81.831 58.9838V58.9838C85.8653 59.8183 88.3728 63.7861 88.4212 67.9056C88.475 72.4933 89.4416 77.05 91.2927 81.3023C94.1425 87.8491 98.949 93.3532 105.052 97.059C111.155 100.765 118.256 102.491 125.379 101.999C132.503 101.508 139.299 98.8237 144.836 94.3152C150.373 89.8066 154.378 83.6947 156.302 76.8186C158.226 69.9425 157.975 62.6395 155.582 55.9121C153.189 49.1847 148.773 43.3629 142.939 39.246C139.15 36.5719 134.884 34.7023 130.402 33.7202C126.378 32.8384 123 29.5791 123 25.4594V25.4594Z" stroke="#FF3C82" stroke-width="29.7" mask="url(#path-2-inside-1_29_1069)"/>
<mask id="path-3-inside-2_29_1069" fill="white">
<path d="M123 25.4594C123 21.3397 126.358 17.9425 130.431 18.561C135.588 19.344 140.604 20.9395 145.289 23.3021C152.202 26.7881 158.2 31.8471 162.803 38.0724C167.405 44.2978 170.484 51.5159 171.79 59.1469C173.097 66.7779 172.595 74.609 170.325 82.0109C168.056 89.4127 164.082 96.1791 158.722 101.766C153.363 107.353 146.768 111.605 139.467 114.181C132.165 116.756 124.362 117.583 116.683 116.595C111.479 115.926 106.431 114.435 101.722 112.193C98.0022 110.422 97.1253 105.727 99.4346 102.315V102.315C101.744 98.9033 106.368 98.0974 110.195 99.6229C112.881 100.694 115.7 101.427 118.587 101.798C123.952 102.489 129.403 101.911 134.504 100.112C139.604 98.3125 144.212 95.3419 147.956 91.4387C151.7 87.5355 154.476 82.8085 156.062 77.6374C157.647 72.4664 157.998 66.9955 157.085 61.6645C156.173 56.3334 154.022 51.2907 150.807 46.9416C147.591 42.5925 143.401 39.0583 138.571 36.6229C135.972 35.312 133.226 34.3392 130.402 33.7202C126.378 32.8384 123 29.5791 123 25.4594V25.4594Z"/>
</mask>
<path d="M123 25.4594C123 21.3397 126.358 17.9425 130.431 18.561C135.588 19.344 140.604 20.9395 145.289 23.3021C152.202 26.7881 158.2 31.8471 162.803 38.0724C167.405 44.2978 170.484 51.5159 171.79 59.1469C173.097 66.7779 172.595 74.609 170.325 82.0109C168.056 89.4127 164.082 96.1791 158.722 101.766C153.363 107.353 146.768 111.605 139.467 114.181C132.165 116.756 124.362 117.583 116.683 116.595C111.479 115.926 106.431 114.435 101.722 112.193C98.0022 110.422 97.1253 105.727 99.4346 102.315V102.315C101.744 98.9033 106.368 98.0974 110.195 99.6229C112.881 100.694 115.7 101.427 118.587 101.798C123.952 102.489 129.403 101.911 134.504 100.112C139.604 98.3125 144.212 95.3419 147.956 91.4387C151.7 87.5355 154.476 82.8085 156.062 77.6374C157.647 72.4664 157.998 66.9955 157.085 61.6645C156.173 56.3334 154.022 51.2907 150.807 46.9416C147.591 42.5925 143.401 39.0583 138.571 36.6229C135.972 35.312 133.226 34.3392 130.402 33.7202C126.378 32.8384 123 29.5791 123 25.4594V25.4594Z" stroke="#8F3CFF" stroke-width="29.7" mask="url(#path-3-inside-2_29_1069)"/>
<mask id="path-4-inside-3_29_1069" fill="white">
<path d="M123 25.4594C123 21.3397 126.358 17.9425 130.431 18.561C134.884 19.2371 139.235 20.5194 143.361 22.3814C149.76 25.2693 155.472 29.4856 160.117 34.7501C164.762 40.0147 168.234 46.2072 170.303 52.9165C171.637 57.2423 172.367 61.7192 172.483 66.2212C172.59 70.3395 168.801 73.2486 164.713 72.7355V72.7355C160.626 72.2225 157.812 68.4654 157.439 64.3626C157.221 61.977 156.756 59.6138 156.046 57.3118C154.601 52.6246 152.176 48.2985 148.931 44.6206C145.685 40.9427 141.695 37.9972 137.224 35.9797C135.029 34.9889 132.742 34.233 130.402 33.7202C126.378 32.8384 123 29.5791 123 25.4594V25.4594Z"/>
</mask>
<path d="M123 25.4594C123 21.3397 126.358 17.9425 130.431 18.561C134.884 19.2371 139.235 20.5194 143.361 22.3814C149.76 25.2693 155.472 29.4856 160.117 34.7501C164.762 40.0147 168.234 46.2072 170.303 52.9165C171.637 57.2423 172.367 61.7192 172.483 66.2212C172.59 70.3395 168.801 73.2486 164.713 72.7355V72.7355C160.626 72.2225 157.812 68.4654 157.439 64.3626C157.221 61.977 156.756 59.6138 156.046 57.3118C154.601 52.6246 152.176 48.2985 148.931 44.6206C145.685 40.9427 141.695 37.9972 137.224 35.9797C135.029 34.9889 132.742 34.233 130.402 33.7202C126.378 32.8384 123 29.5791 123 25.4594V25.4594Z" stroke="#2567F9" stroke-width="29.7" mask="url(#path-4-inside-3_29_1069)"/>
<path d="M113.038 66.9678C113.733 67.2341 114.265 67.6163 114.636 68.1141C115.006 68.612 115.192 69.2084 115.192 69.9031C115.192 70.6326 114.995 71.2694 114.601 71.8136C114.208 72.3463 113.646 72.7573 112.916 73.0468C112.187 73.3363 111.33 73.481 110.346 73.481C109.373 73.481 108.522 73.3363 107.793 73.0468C107.075 72.7573 106.519 72.3463 106.125 71.8136C105.732 71.2694 105.535 70.6326 105.535 69.9031C105.535 69.2084 105.714 68.612 106.073 68.1141C106.444 67.6163 106.976 67.2341 107.671 66.9678C107.115 66.7015 106.693 66.3484 106.403 65.9084C106.114 65.4684 105.969 64.9473 105.969 64.3452C105.969 63.6736 106.149 63.0889 106.508 62.591C106.878 62.0931 107.393 61.711 108.053 61.4447C108.713 61.1784 109.478 61.0452 110.346 61.0452C111.226 61.0452 111.996 61.1784 112.656 61.4447C113.328 61.711 113.843 62.0931 114.202 62.591C114.572 63.0889 114.758 63.6736 114.758 64.3452C114.758 64.9357 114.607 65.4568 114.306 65.9084C114.016 66.3484 113.594 66.7015 113.038 66.9678ZM110.346 62.452C109.524 62.452 108.875 62.6315 108.401 62.9905C107.926 63.3378 107.689 63.8126 107.689 64.4147C107.689 65.0168 107.92 65.4915 108.383 65.8389C108.858 66.1863 109.512 66.3599 110.346 66.3599C111.191 66.3599 111.851 66.1863 112.326 65.8389C112.812 65.4915 113.055 65.0168 113.055 64.4147C113.055 63.8126 112.806 63.3378 112.309 62.9905C111.822 62.6315 111.168 62.452 110.346 62.452ZM110.346 72.0741C111.307 72.0741 112.065 71.8773 112.621 71.4836C113.177 71.0784 113.455 70.5341 113.455 69.851C113.455 69.1794 113.177 68.6526 112.621 68.2705C112.065 67.8768 111.307 67.6799 110.346 67.6799C109.385 67.6799 108.632 67.8768 108.088 68.2705C107.544 68.6526 107.272 69.1794 107.272 69.851C107.272 70.5341 107.544 71.0784 108.088 71.4836C108.632 71.8773 109.385 72.0741 110.346 72.0741ZM127.569 70.3547H125.259V73.342H123.574V70.3547H116.818V69.1389L123.036 61.1841H124.911L118.954 68.861H123.626V66.221H125.259V68.861H127.569V70.3547ZM130.933 67.7147C130.088 67.7147 129.405 67.4078 128.884 66.7941C128.363 66.1805 128.102 65.3815 128.102 64.3973C128.102 63.4131 128.363 62.6141 128.884 62.0005C129.405 61.3868 130.088 61.0799 130.933 61.0799C131.779 61.0799 132.456 61.3868 132.966 62.0005C133.487 62.6026 133.747 63.4015 133.747 64.3973C133.747 65.3931 133.487 66.1978 132.966 66.8115C132.456 67.4136 131.779 67.7147 130.933 67.7147ZM138.263 61.1841H139.6L131.298 73.342H129.961L138.263 61.1841ZM130.933 66.7247C131.466 66.7247 131.883 66.522 132.184 66.1168C132.485 65.6999 132.636 65.1268 132.636 64.3973C132.636 63.6678 132.485 63.1005 132.184 62.6952C131.883 62.2784 131.466 62.0699 130.933 62.0699C130.412 62.0699 129.996 62.2784 129.683 62.6952C129.382 63.112 129.231 63.6794 129.231 64.3973C129.231 65.1152 129.382 65.6826 129.683 66.0994C129.996 66.5163 130.412 66.7247 130.933 66.7247ZM138.628 73.4463C137.782 73.4463 137.099 73.1452 136.578 72.5431C136.069 71.9294 135.814 71.1247 135.814 70.1289C135.814 69.1331 136.069 68.3341 136.578 67.732C137.099 67.1184 137.782 66.8115 138.628 66.8115C139.473 66.8115 140.156 67.1184 140.677 67.732C141.198 68.3457 141.459 69.1447 141.459 70.1289C141.459 71.1131 141.198 71.912 140.677 72.5257C140.156 73.1394 139.473 73.4463 138.628 73.4463ZM138.628 72.4563C139.149 72.4563 139.56 72.2478 139.861 71.831C140.174 71.4141 140.33 70.8468 140.33 70.1289C140.33 69.411 140.174 68.8436 139.861 68.4268C139.56 68.0099 139.149 67.8015 138.628 67.8015C138.095 67.8015 137.678 68.0099 137.377 68.4268C137.076 68.832 136.926 69.3994 136.926 70.1289C136.926 70.8584 137.076 71.4315 137.377 71.8484C137.678 72.2536 138.095 72.4563 138.628 72.4563Z" fill="white"/>
<path d="M36.708 157.096C36.076 157.096 35.464 157 34.872 156.808C34.288 156.608 33.828 156.352 33.492 156.04L33.936 155.104C34.256 155.392 34.664 155.628 35.16 155.812C35.664 155.988 36.18 156.076 36.708 156.076C37.404 156.076 37.924 155.96 38.268 155.728C38.612 155.488 38.784 155.172 38.784 154.78C38.784 154.492 38.688 154.26 38.496 154.084C38.312 153.9 38.08 153.76 37.8 153.664C37.528 153.568 37.14 153.46 36.636 153.34C36.004 153.188 35.492 153.036 35.1 152.884C34.716 152.732 34.384 152.5 34.104 152.188C33.832 151.868 33.696 151.44 33.696 150.904C33.696 150.456 33.812 150.052 34.044 149.692C34.284 149.332 34.644 149.044 35.124 148.828C35.604 148.612 36.2 148.504 36.912 148.504C37.408 148.504 37.896 148.568 38.376 148.696C38.856 148.824 39.268 149.008 39.612 149.248L39.216 150.208C38.864 149.984 38.488 149.816 38.088 149.704C37.688 149.584 37.296 149.524 36.912 149.524C36.232 149.524 35.72 149.648 35.376 149.896C35.04 150.144 34.872 150.464 34.872 150.856C34.872 151.144 34.968 151.38 35.16 151.564C35.352 151.74 35.588 151.88 35.868 151.984C36.156 152.08 36.544 152.184 37.032 152.296C37.664 152.448 38.172 152.6 38.556 152.752C38.94 152.904 39.268 153.136 39.54 153.448C39.82 153.76 39.96 154.18 39.96 154.708C39.96 155.148 39.84 155.552 39.6 155.92C39.36 156.28 38.996 156.568 38.508 156.784C38.02 156.992 37.42 157.096 36.708 157.096ZM44.6517 150.58C45.4597 150.58 46.0997 150.816 46.5717 151.288C47.0517 151.752 47.2917 152.436 47.2917 153.34V157H46.1397V153.472C46.1397 152.856 45.9917 152.392 45.6957 152.08C45.3997 151.768 44.9757 151.612 44.4237 151.612C43.7997 151.612 43.3077 151.796 42.9477 152.164C42.5877 152.524 42.4077 153.044 42.4077 153.724V157H41.2557V148.096H42.4077V151.54C42.6477 151.236 42.9597 151 43.3437 150.832C43.7357 150.664 44.1717 150.58 44.6517 150.58ZM51.8934 157.072C51.2614 157.072 50.6934 156.932 50.1894 156.652C49.6854 156.372 49.2894 155.988 49.0014 155.5C48.7214 155.004 48.5814 154.444 48.5814 153.82C48.5814 153.196 48.7214 152.64 49.0014 152.152C49.2894 151.656 49.6854 151.272 50.1894 151C50.6934 150.72 51.2614 150.58 51.8934 150.58C52.5254 150.58 53.0894 150.72 53.5854 151C54.0894 151.272 54.4814 151.656 54.7614 152.152C55.0494 152.64 55.1934 153.196 55.1934 153.82C55.1934 154.444 55.0494 155.004 54.7614 155.5C54.4814 155.988 54.0894 156.372 53.5854 156.652C53.0894 156.932 52.5254 157.072 51.8934 157.072ZM51.8934 156.064C52.3014 156.064 52.6654 155.972 52.9854 155.788C53.3134 155.596 53.5694 155.332 53.7534 154.996C53.9374 154.652 54.0294 154.26 54.0294 153.82C54.0294 153.38 53.9374 152.992 53.7534 152.656C53.5694 152.312 53.3134 152.048 52.9854 151.864C52.6654 151.68 52.3014 151.588 51.8934 151.588C51.4854 151.588 51.1174 151.68 50.7894 151.864C50.4694 152.048 50.2134 152.312 50.0214 152.656C49.8374 152.992 49.7454 153.38 49.7454 153.82C49.7454 154.26 49.8374 154.652 50.0214 154.996C50.2134 155.332 50.4694 155.596 50.7894 155.788C51.1174 155.972 51.4854 156.064 51.8934 156.064ZM59.8692 150.58C60.4852 150.58 61.0372 150.716 61.5252 150.988C62.0132 151.26 62.3932 151.64 62.6652 152.128C62.9452 152.616 63.0852 153.18 63.0852 153.82C63.0852 154.46 62.9452 155.028 62.6652 155.524C62.3932 156.012 62.0132 156.392 61.5252 156.664C61.0372 156.936 60.4852 157.072 59.8692 157.072C59.4132 157.072 58.9932 156.984 58.6092 156.808C58.2332 156.632 57.9132 156.376 57.6492 156.04V159.328H56.4972V150.64H57.6012V151.648C57.8572 151.296 58.1812 151.032 58.5732 150.856C58.9652 150.672 59.3972 150.58 59.8692 150.58ZM59.7732 156.064C60.1812 156.064 60.5452 155.972 60.8652 155.788C61.1932 155.596 61.4492 155.332 61.6332 154.996C61.8252 154.652 61.9212 154.26 61.9212 153.82C61.9212 153.38 61.8252 152.992 61.6332 152.656C61.4492 152.312 61.1932 152.048 60.8652 151.864C60.5452 151.68 60.1812 151.588 59.7732 151.588C59.3732 151.588 59.0092 151.684 58.6812 151.876C58.3612 152.06 58.1052 152.32 57.9132 152.656C57.7292 152.992 57.6372 153.38 57.6372 153.82C57.6372 154.26 57.7292 154.652 57.9132 154.996C58.0972 155.332 58.3532 155.596 58.6812 155.788C59.0092 155.972 59.3732 156.064 59.7732 156.064ZM67.7595 150.58C68.3755 150.58 68.9275 150.716 69.4155 150.988C69.9035 151.26 70.2835 151.64 70.5555 152.128C70.8355 152.616 70.9755 153.18 70.9755 153.82C70.9755 154.46 70.8355 155.028 70.5555 155.524C70.2835 156.012 69.9035 156.392 69.4155 156.664C68.9275 156.936 68.3755 157.072 67.7595 157.072C67.3035 157.072 66.8835 156.984 66.4995 156.808C66.1235 156.632 65.8035 156.376 65.5395 156.04V159.328H64.3875V150.64H65.4915V151.648C65.7475 151.296 66.0715 151.032 66.4635 150.856C66.8555 150.672 67.2875 150.58 67.7595 150.58ZM67.6635 156.064C68.0715 156.064 68.4355 155.972 68.7555 155.788C69.0835 155.596 69.3395 155.332 69.5235 154.996C69.7155 154.652 69.8115 154.26 69.8115 153.82C69.8115 153.38 69.7155 152.992 69.5235 152.656C69.3395 152.312 69.0835 152.048 68.7555 151.864C68.4355 151.68 68.0715 151.588 67.6635 151.588C67.2635 151.588 66.8995 151.684 66.5715 151.876C66.2515 152.06 65.9955 152.32 65.8035 152.656C65.6195 152.992 65.5275 153.38 65.5275 153.82C65.5275 154.26 65.6195 154.652 65.8035 154.996C65.9875 155.332 66.2435 155.596 66.5715 155.788C66.8995 155.972 67.2635 156.064 67.6635 156.064ZM72.2778 150.64H73.4298V157H72.2778V150.64ZM72.8538 149.416C72.6298 149.416 72.4418 149.344 72.2898 149.2C72.1458 149.056 72.0738 148.88 72.0738 148.672C72.0738 148.464 72.1458 148.288 72.2898 148.144C72.4418 147.992 72.6298 147.916 72.8538 147.916C73.0778 147.916 73.2618 147.988 73.4058 148.132C73.5578 148.268 73.6338 148.44 73.6338 148.648C73.6338 148.864 73.5578 149.048 73.4058 149.2C73.2618 149.344 73.0778 149.416 72.8538 149.416ZM78.7359 150.58C79.5439 150.58 80.1839 150.816 80.6559 151.288C81.1359 151.752 81.3759 152.436 81.3759 153.34V157H80.2239V153.472C80.2239 152.856 80.0759 152.392 79.7799 152.08C79.4839 151.768 79.0599 151.612 78.5079 151.612C77.8839 151.612 77.3919 151.796 77.0319 152.164C76.6719 152.524 76.4919 153.044 76.4919 153.724V157H75.3399V150.64H76.4439V151.6C76.6759 151.272 76.9879 151.02 77.3799 150.844C77.7799 150.668 78.2319 150.58 78.7359 150.58ZM89.3376 150.64V156.136C89.3376 157.248 89.0616 158.068 88.5096 158.596C87.9576 159.132 87.1336 159.4 86.0376 159.4C85.4376 159.4 84.8656 159.316 84.3216 159.148C83.7776 158.988 83.3376 158.756 83.0016 158.452L83.5536 157.564C83.8496 157.82 84.2136 158.02 84.6456 158.164C85.0856 158.316 85.5376 158.392 86.0016 158.392C86.7456 158.392 87.2936 158.216 87.6456 157.864C88.0056 157.512 88.1856 156.976 88.1856 156.256V155.752C87.9136 156.08 87.5776 156.328 87.1776 156.496C86.7856 156.656 86.3576 156.736 85.8936 156.736C85.2856 156.736 84.7336 156.608 84.2376 156.352C83.7496 156.088 83.3656 155.724 83.0856 155.26C82.8056 154.788 82.6656 154.252 82.6656 153.652C82.6656 153.052 82.8056 152.52 83.0856 152.056C83.3656 151.584 83.7496 151.22 84.2376 150.964C84.7336 150.708 85.2856 150.58 85.8936 150.58C86.3736 150.58 86.8176 150.668 87.2256 150.844C87.6416 151.02 87.9816 151.28 88.2456 151.624V150.64H89.3376ZM86.0256 155.728C86.4416 155.728 86.8136 155.64 87.1416 155.464C87.4776 155.288 87.7376 155.044 87.9216 154.732C88.1136 154.412 88.2096 154.052 88.2096 153.652C88.2096 153.036 88.0056 152.54 87.5976 152.164C87.1896 151.78 86.6656 151.588 86.0256 151.588C85.3776 151.588 84.8496 151.78 84.4416 152.164C84.0336 152.54 83.8296 153.036 83.8296 153.652C83.8296 154.052 83.9216 154.412 84.1056 154.732C84.2976 155.044 84.5576 155.288 84.8856 155.464C85.2216 155.64 85.6016 155.728 86.0256 155.728Z" fill="white"/>
<circle cx="21" cy="152.25" r="3" fill="#2567F9"/>
<path d="M41.484 174.1V182.5H40.284V178.756H35.46V182.5H34.26V174.1H35.46V177.712H40.284V174.1H41.484ZM49.2889 179.356C49.2889 179.444 49.2809 179.56 49.2649 179.704H44.1049C44.1769 180.264 44.4209 180.716 44.8369 181.06C45.2609 181.396 45.7849 181.564 46.4089 181.564C47.1689 181.564 47.7809 181.308 48.2449 180.796L48.8809 181.54C48.5929 181.876 48.2329 182.132 47.8009 182.308C47.3769 182.484 46.9009 182.572 46.3729 182.572C45.7009 182.572 45.1049 182.436 44.5849 182.164C44.0649 181.884 43.6609 181.496 43.3729 181C43.0929 180.504 42.9529 179.944 42.9529 179.32C42.9529 178.704 43.0889 178.148 43.3609 177.652C43.6409 177.156 44.0209 176.772 44.5009 176.5C44.9889 176.22 45.5369 176.08 46.1449 176.08C46.7529 176.08 47.2929 176.22 47.7649 176.5C48.2449 176.772 48.6169 177.156 48.8809 177.652C49.1529 178.148 49.2889 178.716 49.2889 179.356ZM46.1449 177.052C45.5929 177.052 45.1289 177.22 44.7529 177.556C44.3849 177.892 44.1689 178.332 44.1049 178.876H48.1849C48.1209 178.34 47.9009 177.904 47.5249 177.568C47.1569 177.224 46.6969 177.052 46.1449 177.052ZM52.7393 176.08C53.6193 176.08 54.2913 176.296 54.7553 176.728C55.2273 177.16 55.4633 177.804 55.4633 178.66V182.5H54.3713V181.66C54.1793 181.956 53.9033 182.184 53.5433 182.344C53.1913 182.496 52.7713 182.572 52.2833 182.572C51.5713 182.572 50.9993 182.4 50.5673 182.056C50.1433 181.712 49.9313 181.26 49.9313 180.7C49.9313 180.14 50.1353 179.692 50.5433 179.356C50.9513 179.012 51.5993 178.84 52.4873 178.84H54.3113V178.612C54.3113 178.116 54.1673 177.736 53.8793 177.472C53.5913 177.208 53.1673 177.076 52.6073 177.076C52.2313 177.076 51.8633 177.14 51.5033 177.268C51.1433 177.388 50.8393 177.552 50.5913 177.76L50.1113 176.896C50.4393 176.632 50.8313 176.432 51.2873 176.296C51.7433 176.152 52.2273 176.08 52.7393 176.08ZM52.4753 181.684C52.9153 181.684 53.2953 181.588 53.6153 181.396C53.9353 181.196 54.1673 180.916 54.3113 180.556V179.668H52.5353C51.5593 179.668 51.0713 179.996 51.0713 180.652C51.0713 180.972 51.1953 181.224 51.4433 181.408C51.6913 181.592 52.0353 181.684 52.4753 181.684ZM57.3058 173.596H58.4578V182.5H57.3058V173.596ZM64.0963 182.128C63.9283 182.272 63.7203 182.384 63.4723 182.464C63.2243 182.536 62.9683 182.572 62.7043 182.572C62.0643 182.572 61.5683 182.4 61.2163 182.056C60.8643 181.712 60.6883 181.22 60.6883 180.58V177.088H59.6083V176.14H60.6883V174.748H61.8403V176.14H63.6643V177.088H61.8403V180.532C61.8403 180.876 61.9243 181.14 62.0923 181.324C62.2683 181.508 62.5163 181.6 62.8363 181.6C63.1883 181.6 63.4883 181.5 63.7363 181.3L64.0963 182.128ZM68.5956 176.08C69.4036 176.08 70.0436 176.316 70.5156 176.788C70.9956 177.252 71.2356 177.936 71.2356 178.84V182.5H70.0836V178.972C70.0836 178.356 69.9356 177.892 69.6396 177.58C69.3436 177.268 68.9196 177.112 68.3676 177.112C67.7436 177.112 67.2516 177.296 66.8916 177.664C66.5316 178.024 66.3516 178.544 66.3516 179.224V182.5H65.1996V173.596H66.3516V177.04C66.5916 176.736 66.9036 176.5 67.2876 176.332C67.6796 176.164 68.1156 176.08 68.5956 176.08Z" fill="white"/>
<circle cx="21" cy="177.75" r="3" fill="#8F3CFF"/>
<path d="M35.46 200.644V203.572H39.672V204.604H35.46V208H34.26V199.6H40.188V200.644H35.46ZM43.9446 208.072C43.3126 208.072 42.7446 207.932 42.2406 207.652C41.7366 207.372 41.3406 206.988 41.0526 206.5C40.7726 206.004 40.6326 205.444 40.6326 204.82C40.6326 204.196 40.7726 203.64 41.0526 203.152C41.3406 202.656 41.7366 202.272 42.2406 202C42.7446 201.72 43.3126 201.58 43.9446 201.58C44.5766 201.58 45.1406 201.72 45.6366 202C46.1406 202.272 46.5326 202.656 46.8126 203.152C47.1006 203.64 47.2446 204.196 47.2446 204.82C47.2446 205.444 47.1006 206.004 46.8126 206.5C46.5326 206.988 46.1406 207.372 45.6366 207.652C45.1406 207.932 44.5766 208.072 43.9446 208.072ZM43.9446 207.064C44.3526 207.064 44.7166 206.972 45.0366 206.788C45.3646 206.596 45.6206 206.332 45.8046 205.996C45.9886 205.652 46.0806 205.26 46.0806 204.82C46.0806 204.38 45.9886 203.992 45.8046 203.656C45.6206 203.312 45.3646 203.048 45.0366 202.864C44.7166 202.68 44.3526 202.588 43.9446 202.588C43.5366 202.588 43.1686 202.68 42.8406 202.864C42.5206 203.048 42.2646 203.312 42.0726 203.656C41.8886 203.992 41.7966 204.38 41.7966 204.82C41.7966 205.26 41.8886 205.652 42.0726 205.996C42.2646 206.332 42.5206 206.596 42.8406 206.788C43.1686 206.972 43.5366 207.064 43.9446 207.064ZM51.2723 208.072C50.6403 208.072 50.0723 207.932 49.5683 207.652C49.0643 207.372 48.6683 206.988 48.3803 206.5C48.1003 206.004 47.9603 205.444 47.9603 204.82C47.9603 204.196 48.1003 203.64 48.3803 203.152C48.6683 202.656 49.0643 202.272 49.5683 202C50.0723 201.72 50.6403 201.58 51.2723 201.58C51.9043 201.58 52.4683 201.72 52.9643 202C53.4683 202.272 53.8603 202.656 54.1403 203.152C54.4283 203.64 54.5723 204.196 54.5723 204.82C54.5723 205.444 54.4283 206.004 54.1403 206.5C53.8603 206.988 53.4683 207.372 52.9643 207.652C52.4683 207.932 51.9043 208.072 51.2723 208.072ZM51.2723 207.064C51.6803 207.064 52.0443 206.972 52.3643 206.788C52.6923 206.596 52.9483 206.332 53.1323 205.996C53.3163 205.652 53.4083 205.26 53.4083 204.82C53.4083 204.38 53.3163 203.992 53.1323 203.656C52.9483 203.312 52.6923 203.048 52.3643 202.864C52.0443 202.68 51.6803 202.588 51.2723 202.588C50.8643 202.588 50.4963 202.68 50.1683 202.864C49.8483 203.048 49.5923 203.312 49.4003 203.656C49.2163 203.992 49.1243 204.38 49.1243 204.82C49.1243 205.26 49.2163 205.652 49.4003 205.996C49.5923 206.332 49.8483 206.596 50.1683 206.788C50.4963 206.972 50.8643 207.064 51.2723 207.064ZM61.8761 199.096V208H60.7721V206.992C60.5161 207.344 60.1921 207.612 59.8001 207.796C59.4081 207.98 58.9761 208.072 58.5041 208.072C57.8881 208.072 57.3361 207.936 56.8481 207.664C56.3601 207.392 55.9761 207.012 55.6961 206.524C55.4241 206.028 55.2881 205.46 55.2881 204.82C55.2881 204.18 55.4241 203.616 55.6961 203.128C55.9761 202.64 56.3601 202.26 56.8481 201.988C57.3361 201.716 57.8881 201.58 58.5041 201.58C58.9601 201.58 59.3801 201.668 59.7641 201.844C60.1481 202.012 60.4681 202.264 60.7241 202.6V199.096H61.8761ZM58.6001 207.064C59.0001 207.064 59.3641 206.972 59.6921 206.788C60.0201 206.596 60.2761 206.332 60.4601 205.996C60.6441 205.652 60.7361 205.26 60.7361 204.82C60.7361 204.38 60.6441 203.992 60.4601 203.656C60.2761 203.312 60.0201 203.048 59.6921 202.864C59.3641 202.68 59.0001 202.588 58.6001 202.588C58.1921 202.588 57.8241 202.68 57.4961 202.864C57.1761 203.048 56.9201 203.312 56.7281 203.656C56.5441 203.992 56.4521 204.38 56.4521 204.82C56.4521 205.26 56.5441 205.652 56.7281 205.996C56.9201 206.332 57.1761 206.596 57.4961 206.788C57.8241 206.972 58.1921 207.064 58.6001 207.064Z" fill="white"/>
<circle cx="21" cy="203.25" r="3" fill="#FF3C82"/>
<path d="M181.24 154.708C181.24 155.34 181 155.876 180.52 156.316C180.048 156.756 179.36 157.012 178.456 157.084V158.44H177.688V157.084C177.104 157.052 176.548 156.944 176.02 156.76C175.5 156.568 175.084 156.328 174.772 156.04L175.216 155.104C175.504 155.368 175.868 155.588 176.308 155.764C176.748 155.932 177.208 156.032 177.688 156.064V153.28C177.128 153.144 176.66 152.996 176.284 152.836C175.916 152.676 175.604 152.44 175.348 152.128C175.1 151.816 174.976 151.408 174.976 150.904C174.976 150.272 175.204 149.736 175.66 149.296C176.124 148.856 176.8 148.6 177.688 148.528V147.16H178.456V148.516C178.912 148.532 179.352 148.604 179.776 148.732C180.208 148.86 180.58 149.032 180.892 149.248L180.496 150.208C179.848 149.8 179.168 149.576 178.456 149.536V152.332C179.04 152.476 179.52 152.628 179.896 152.788C180.272 152.94 180.588 153.172 180.844 153.484C181.108 153.788 181.24 154.196 181.24 154.708ZM176.152 150.856C176.152 151.2 176.284 151.468 176.548 151.66C176.812 151.852 177.192 152.012 177.688 152.14V149.548C177.176 149.612 176.792 149.764 176.536 150.004C176.28 150.236 176.152 150.52 176.152 150.856ZM178.456 156.052C178.992 156.004 179.392 155.868 179.656 155.644C179.928 155.412 180.064 155.124 180.064 154.78C180.064 154.428 179.924 154.16 179.644 153.976C179.372 153.784 178.976 153.616 178.456 153.472V156.052ZM187.557 148.6V157H186.369V149.644H184.473V148.6H187.557ZM189.909 155.428C190.133 155.428 190.317 155.508 190.461 155.668C190.613 155.82 190.689 156.012 190.689 156.244C190.689 156.364 190.673 156.48 190.641 156.592C190.617 156.704 190.565 156.876 190.485 157.108L189.921 158.776H189.165L189.609 156.988C189.457 156.932 189.333 156.84 189.237 156.712C189.149 156.576 189.105 156.42 189.105 156.244C189.105 156.004 189.181 155.808 189.333 155.656C189.485 155.504 189.677 155.428 189.909 155.428ZM197.502 148.6V149.416L194.106 157H192.834L196.158 149.644H192.318V151.144H191.166V148.6H197.502ZM200.454 151.948C201.654 151.948 202.534 152.176 203.094 152.632C203.662 153.08 203.946 153.696 203.946 154.48C203.946 154.976 203.826 155.424 203.586 155.824C203.354 156.216 202.998 156.528 202.518 156.76C202.046 156.984 201.462 157.096 200.766 157.096C200.174 157.096 199.602 157.008 199.05 156.832C198.498 156.648 198.042 156.396 197.682 156.076L198.234 155.128C198.522 155.4 198.89 155.62 199.338 155.788C199.786 155.948 200.258 156.028 200.754 156.028C201.386 156.028 201.874 155.896 202.218 155.632C202.57 155.36 202.746 154.992 202.746 154.528C202.746 154.024 202.554 153.644 202.17 153.388C201.786 153.124 201.13 152.992 200.202 152.992H198.294L198.738 148.6H203.478V149.644H199.746L199.518 151.948H200.454ZM207.813 152.128C208.637 152.208 209.265 152.464 209.697 152.896C210.129 153.32 210.345 153.864 210.345 154.528C210.345 155.008 210.225 155.444 209.985 155.836C209.745 156.22 209.385 156.528 208.905 156.76C208.433 156.984 207.853 157.096 207.165 157.096C206.565 157.096 205.989 157.008 205.437 156.832C204.885 156.648 204.433 156.396 204.081 156.076L204.633 155.128C204.921 155.4 205.289 155.62 205.737 155.788C206.185 155.948 206.661 156.028 207.165 156.028C207.789 156.028 208.273 155.896 208.617 155.632C208.969 155.368 209.145 155.004 209.145 154.54C209.145 154.076 208.973 153.716 208.629 153.46C208.285 153.204 207.765 153.076 207.069 153.076H206.397V152.236L208.509 149.644H204.465V148.6H210.009V149.416L207.813 152.128ZM211.966 157.072C211.742 157.072 211.55 156.996 211.39 156.844C211.23 156.684 211.15 156.484 211.15 156.244C211.15 156.012 211.23 155.82 211.39 155.668C211.55 155.508 211.742 155.428 211.966 155.428C212.19 155.428 212.378 155.504 212.53 155.656C212.682 155.808 212.758 156.004 212.758 156.244C212.758 156.484 212.678 156.684 212.518 156.844C212.366 156.996 212.182 157.072 211.966 157.072ZM216.328 148.504C217.456 148.504 218.324 148.868 218.932 149.596C219.548 150.324 219.856 151.356 219.856 152.692C219.856 153.628 219.688 154.428 219.352 155.092C219.024 155.748 218.56 156.248 217.96 156.592C217.368 156.928 216.676 157.096 215.884 157.096C215.476 157.096 215.092 157.056 214.732 156.976C214.372 156.888 214.06 156.764 213.796 156.604L214.252 155.668C214.66 155.932 215.2 156.064 215.872 156.064C216.744 156.064 217.424 155.796 217.912 155.26C218.408 154.716 218.656 153.928 218.656 152.896V152.596C218.416 152.956 218.084 153.232 217.66 153.424C217.236 153.608 216.76 153.7 216.232 153.7C215.68 153.7 215.184 153.596 214.744 153.388C214.312 153.18 213.972 152.884 213.724 152.5C213.484 152.108 213.364 151.66 213.364 151.156C213.364 150.628 213.492 150.164 213.748 149.764C214.012 149.364 214.368 149.056 214.816 148.84C215.264 148.616 215.768 148.504 216.328 148.504ZM216.436 152.728C216.812 152.728 217.148 152.656 217.444 152.512C217.74 152.368 217.968 152.172 218.128 151.924C218.296 151.676 218.38 151.4 218.38 151.096C218.38 150.8 218.3 150.532 218.14 150.292C217.988 150.044 217.76 149.848 217.456 149.704C217.16 149.552 216.8 149.476 216.376 149.476C215.824 149.476 215.376 149.624 215.032 149.92C214.696 150.216 214.528 150.612 214.528 151.108C214.528 151.604 214.7 152 215.044 152.296C215.388 152.584 215.852 152.728 216.436 152.728ZM226.589 155.956V157H220.553V156.184L223.973 152.884C224.389 152.484 224.669 152.14 224.813 151.852C224.957 151.556 225.029 151.26 225.029 150.964C225.029 150.524 224.873 150.184 224.561 149.944C224.257 149.696 223.817 149.572 223.241 149.572C222.313 149.572 221.597 149.876 221.093 150.484L220.277 149.776C220.605 149.376 221.033 149.064 221.561 148.84C222.097 148.616 222.693 148.504 223.349 148.504C224.229 148.504 224.929 148.716 225.449 149.14C225.969 149.556 226.229 150.124 226.229 150.844C226.229 151.292 226.133 151.716 225.941 152.116C225.749 152.516 225.385 152.972 224.849 153.484L222.281 155.956H226.589Z" fill="white"/>
<path d="M178.303 180.208C178.303 180.84 178.063 181.376 177.583 181.816C177.111 182.256 176.423 182.512 175.519 182.584V183.94H174.751V182.584C174.167 182.552 173.611 182.444 173.083 182.26C172.563 182.068 172.147 181.828 171.835 181.54L172.279 180.604C172.567 180.868 172.931 181.088 173.371 181.264C173.811 181.432 174.271 181.532 174.751 181.564V178.78C174.191 178.644 173.723 178.496 173.347 178.336C172.979 178.176 172.667 177.94 172.411 177.628C172.163 177.316 172.039 176.908 172.039 176.404C172.039 175.772 172.267 175.236 172.723 174.796C173.187 174.356 173.863 174.1 174.751 174.028V172.66H175.519V174.016C175.975 174.032 176.415 174.104 176.839 174.232C177.271 174.36 177.643 174.532 177.955 174.748L177.559 175.708C176.911 175.3 176.231 175.076 175.519 175.036V177.832C176.103 177.976 176.583 178.128 176.959 178.288C177.335 178.44 177.651 178.672 177.907 178.984C178.171 179.288 178.303 179.696 178.303 180.208ZM173.215 176.356C173.215 176.7 173.347 176.968 173.611 177.16C173.875 177.352 174.255 177.512 174.751 177.64V175.048C174.239 175.112 173.855 175.264 173.599 175.504C173.343 175.736 173.215 176.02 173.215 176.356ZM175.519 181.552C176.055 181.504 176.455 181.368 176.719 181.144C176.991 180.912 177.127 180.624 177.127 180.28C177.127 179.928 176.987 179.66 176.707 179.476C176.435 179.284 176.039 179.116 175.519 178.972V181.552ZM187.554 174.1V182.5H186.366V175.144H184.47V174.1H187.554ZM189.906 180.928C190.13 180.928 190.314 181.008 190.458 181.168C190.61 181.32 190.686 181.512 190.686 181.744C190.686 181.864 190.67 181.98 190.638 182.092C190.614 182.204 190.562 182.376 190.482 182.608L189.918 184.276H189.162L189.606 182.488C189.454 182.432 189.33 182.34 189.234 182.212C189.146 182.076 189.102 181.92 189.102 181.744C189.102 181.504 189.178 181.308 189.33 181.156C189.482 181.004 189.674 180.928 189.906 180.928ZM194.822 182.596C194.158 182.596 193.566 182.428 193.046 182.092C192.534 181.748 192.13 181.252 191.834 180.604C191.538 179.956 191.39 179.188 191.39 178.3C191.39 177.412 191.538 176.644 191.834 175.996C192.13 175.348 192.534 174.856 193.046 174.52C193.566 174.176 194.158 174.004 194.822 174.004C195.478 174.004 196.062 174.176 196.574 174.52C197.094 174.856 197.502 175.348 197.798 175.996C198.094 176.644 198.242 177.412 198.242 178.3C198.242 179.188 198.094 179.956 197.798 180.604C197.502 181.252 197.094 181.748 196.574 182.092C196.062 182.428 195.478 182.596 194.822 182.596ZM194.822 181.528C195.494 181.528 196.03 181.252 196.43 180.7C196.838 180.148 197.042 179.348 197.042 178.3C197.042 177.252 196.838 176.452 196.43 175.9C196.03 175.348 195.494 175.072 194.822 175.072C194.142 175.072 193.598 175.348 193.19 175.9C192.79 176.452 192.59 177.252 192.59 178.3C192.59 179.348 192.79 180.148 193.19 180.7C193.598 181.252 194.142 181.528 194.822 181.528ZM201.674 174.1V182.5H200.486V175.144H198.59V174.1H201.674ZM205.946 174.004C207.074 174.004 207.942 174.368 208.55 175.096C209.166 175.824 209.474 176.856 209.474 178.192C209.474 179.128 209.306 179.928 208.97 180.592C208.642 181.248 208.178 181.748 207.578 182.092C206.986 182.428 206.294 182.596 205.502 182.596C205.094 182.596 204.71 182.556 204.35 182.476C203.99 182.388 203.678 182.264 203.414 182.104L203.87 181.168C204.278 181.432 204.818 181.564 205.49 181.564C206.362 181.564 207.042 181.296 207.53 180.76C208.026 180.216 208.274 179.428 208.274 178.396V178.096C208.034 178.456 207.702 178.732 207.278 178.924C206.854 179.108 206.378 179.2 205.85 179.2C205.298 179.2 204.802 179.096 204.362 178.888C203.93 178.68 203.59 178.384 203.342 178C203.102 177.608 202.982 177.16 202.982 176.656C202.982 176.128 203.11 175.664 203.366 175.264C203.63 174.864 203.986 174.556 204.434 174.34C204.882 174.116 205.386 174.004 205.946 174.004ZM206.054 178.228C206.43 178.228 206.766 178.156 207.062 178.012C207.358 177.868 207.586 177.672 207.746 177.424C207.914 177.176 207.998 176.9 207.998 176.596C207.998 176.3 207.918 176.032 207.758 175.792C207.606 175.544 207.378 175.348 207.074 175.204C206.778 175.052 206.418 174.976 205.994 174.976C205.442 174.976 204.994 175.124 204.65 175.42C204.314 175.716 204.146 176.112 204.146 176.608C204.146 177.104 204.318 177.5 204.662 177.796C205.006 178.084 205.47 178.228 206.054 178.228ZM210.99 182.572C210.766 182.572 210.574 182.496 210.414 182.344C210.254 182.184 210.174 181.984 210.174 181.744C210.174 181.512 210.254 181.32 210.414 181.168C210.574 181.008 210.766 180.928 210.99 180.928C211.214 180.928 211.402 181.004 211.554 181.156C211.706 181.308 211.782 181.504 211.782 181.744C211.782 181.984 211.702 182.184 211.542 182.344C211.39 182.496 211.206 182.572 210.99 182.572ZM216.111 177.4C216.663 177.4 217.155 177.504 217.587 177.712C218.027 177.92 218.371 178.22 218.619 178.612C218.867 178.996 218.991 179.44 218.991 179.944C218.991 180.472 218.859 180.936 218.595 181.336C218.339 181.736 217.983 182.048 217.527 182.272C217.079 182.488 216.575 182.596 216.015 182.596C214.887 182.596 214.015 182.232 213.399 181.504C212.791 180.776 212.487 179.744 212.487 178.408C212.487 177.472 212.651 176.676 212.979 176.02C213.315 175.356 213.779 174.856 214.371 174.52C214.971 174.176 215.667 174.004 216.459 174.004C216.867 174.004 217.251 174.048 217.611 174.136C217.971 174.216 218.283 174.336 218.547 174.496L218.091 175.432C217.691 175.168 217.155 175.036 216.483 175.036C215.611 175.036 214.927 175.308 214.431 175.852C213.935 176.388 213.687 177.172 213.687 178.204C213.687 178.332 213.691 178.432 213.699 178.504C213.939 178.144 214.267 177.872 214.683 177.688C215.107 177.496 215.583 177.4 216.111 177.4ZM215.967 181.624C216.519 181.624 216.967 181.476 217.311 181.18C217.655 180.884 217.827 180.488 217.827 179.992C217.827 179.496 217.651 179.104 217.299 178.816C216.955 178.52 216.491 178.372 215.907 178.372C215.531 178.372 215.195 178.444 214.899 178.588C214.611 178.732 214.383 178.928 214.215 179.176C214.055 179.424 213.975 179.7 213.975 180.004C213.975 180.3 214.051 180.572 214.203 180.82C214.363 181.06 214.591 181.256 214.887 181.408C215.191 181.552 215.551 181.624 215.967 181.624ZM224.739 178.096C225.219 178.28 225.587 178.544 225.843 178.888C226.099 179.232 226.227 179.644 226.227 180.124C226.227 180.628 226.091 181.068 225.819 181.444C225.547 181.812 225.159 182.096 224.655 182.296C224.151 182.496 223.559 182.596 222.879 182.596C222.207 182.596 221.619 182.496 221.115 182.296C220.619 182.096 220.235 181.812 219.963 181.444C219.691 181.068 219.555 180.628 219.555 180.124C219.555 179.644 219.679 179.232 219.927 178.888C220.183 178.544 220.551 178.28 221.031 178.096C220.647 177.912 220.355 177.668 220.155 177.364C219.955 177.06 219.855 176.7 219.855 176.284C219.855 175.82 219.979 175.416 220.227 175.072C220.483 174.728 220.839 174.464 221.295 174.28C221.751 174.096 222.279 174.004 222.879 174.004C223.487 174.004 224.019 174.096 224.475 174.28C224.939 174.464 225.295 174.728 225.543 175.072C225.799 175.416 225.927 175.82 225.927 176.284C225.927 176.692 225.823 177.052 225.615 177.364C225.415 177.668 225.123 177.912 224.739 178.096ZM222.879 174.976C222.311 174.976 221.863 175.1 221.535 175.348C221.207 175.588 221.043 175.916 221.043 176.332C221.043 176.748 221.203 177.076 221.523 177.316C221.851 177.556 222.303 177.676 222.879 177.676C223.463 177.676 223.919 177.556 224.247 177.316C224.583 177.076 224.751 176.748 224.751 176.332C224.751 175.916 224.579 175.588 224.235 175.348C223.899 175.1 223.447 174.976 222.879 174.976ZM222.879 181.624C223.543 181.624 224.067 181.488 224.451 181.216C224.835 180.936 225.027 180.56 225.027 180.088C225.027 179.624 224.835 179.26 224.451 178.996C224.067 178.724 223.543 178.588 222.879 178.588C222.215 178.588 221.695 178.724 221.319 178.996C220.943 179.26 220.755 179.624 220.755 180.088C220.755 180.56 220.943 180.936 221.319 181.216C221.695 181.488 222.215 181.624 222.879 181.624Z" fill="white"/>
<path d="M183.674 205.708C183.674 206.34 183.434 206.876 182.954 207.316C182.482 207.756 181.794 208.012 180.89 208.084V209.44H180.122V208.084C179.538 208.052 178.982 207.944 178.454 207.76C177.934 207.568 177.518 207.328 177.206 207.04L177.65 206.104C177.938 206.368 178.302 206.588 178.742 206.764C179.182 206.932 179.642 207.032 180.122 207.064V204.28C179.562 204.144 179.094 203.996 178.718 203.836C178.35 203.676 178.038 203.44 177.782 203.128C177.534 202.816 177.41 202.408 177.41 201.904C177.41 201.272 177.638 200.736 178.094 200.296C178.558 199.856 179.234 199.6 180.122 199.528V198.16H180.89V199.516C181.346 199.532 181.786 199.604 182.21 199.732C182.642 199.86 183.014 200.032 183.326 200.248L182.93 201.208C182.282 200.8 181.602 200.576 180.89 200.536V203.332C181.474 203.476 181.954 203.628 182.33 203.788C182.706 203.94 183.022 204.172 183.278 204.484C183.542 204.788 183.674 205.196 183.674 205.708ZM178.586 201.856C178.586 202.2 178.718 202.468 178.982 202.66C179.246 202.852 179.626 203.012 180.122 203.14V200.548C179.61 200.612 179.226 200.764 178.97 201.004C178.714 201.236 178.586 201.52 178.586 201.856ZM180.89 207.052C181.426 207.004 181.826 206.868 182.09 206.644C182.362 206.412 182.498 206.124 182.498 205.78C182.498 205.428 182.358 205.16 182.078 204.976C181.806 204.784 181.41 204.616 180.89 204.472V207.052ZM193.044 199.504C194.172 199.504 195.04 199.868 195.648 200.596C196.264 201.324 196.572 202.356 196.572 203.692C196.572 204.628 196.404 205.428 196.068 206.092C195.74 206.748 195.276 207.248 194.676 207.592C194.084 207.928 193.392 208.096 192.6 208.096C192.192 208.096 191.808 208.056 191.448 207.976C191.088 207.888 190.776 207.764 190.512 207.604L190.968 206.668C191.376 206.932 191.916 207.064 192.588 207.064C193.46 207.064 194.14 206.796 194.628 206.26C195.124 205.716 195.372 204.928 195.372 203.896V203.596C195.132 203.956 194.8 204.232 194.376 204.424C193.952 204.608 193.476 204.7 192.948 204.7C192.396 204.7 191.9 204.596 191.46 204.388C191.028 204.18 190.688 203.884 190.44 203.5C190.2 203.108 190.08 202.66 190.08 202.156C190.08 201.628 190.208 201.164 190.464 200.764C190.728 200.364 191.084 200.056 191.532 199.84C191.98 199.616 192.484 199.504 193.044 199.504ZM193.152 203.728C193.528 203.728 193.864 203.656 194.16 203.512C194.456 203.368 194.684 203.172 194.844 202.924C195.012 202.676 195.096 202.4 195.096 202.096C195.096 201.8 195.016 201.532 194.856 201.292C194.704 201.044 194.476 200.848 194.172 200.704C193.876 200.552 193.516 200.476 193.092 200.476C192.54 200.476 192.092 200.624 191.748 200.92C191.412 201.216 191.244 201.612 191.244 202.108C191.244 202.604 191.416 203 191.76 203.296C192.104 203.584 192.568 203.728 193.152 203.728ZM199.837 202.948C201.037 202.948 201.917 203.176 202.477 203.632C203.045 204.08 203.329 204.696 203.329 205.48C203.329 205.976 203.209 206.424 202.969 206.824C202.737 207.216 202.381 207.528 201.901 207.76C201.429 207.984 200.845 208.096 200.149 208.096C199.557 208.096 198.985 208.008 198.433 207.832C197.881 207.648 197.425 207.396 197.065 207.076L197.617 206.128C197.905 206.4 198.273 206.62 198.721 206.788C199.169 206.948 199.641 207.028 200.137 207.028C200.769 207.028 201.257 206.896 201.601 206.632C201.953 206.36 202.129 205.992 202.129 205.528C202.129 205.024 201.937 204.644 201.553 204.388C201.169 204.124 200.513 203.992 199.585 203.992H197.677L198.121 199.6H202.861V200.644H199.129L198.901 202.948H199.837ZM209.883 206.956V208H203.847V207.184L207.267 203.884C207.683 203.484 207.963 203.14 208.107 202.852C208.251 202.556 208.323 202.26 208.323 201.964C208.323 201.524 208.167 201.184 207.855 200.944C207.551 200.696 207.111 200.572 206.535 200.572C205.607 200.572 204.891 200.876 204.387 201.484L203.571 200.776C203.899 200.376 204.327 200.064 204.855 199.84C205.391 199.616 205.987 199.504 206.643 199.504C207.523 199.504 208.223 199.716 208.743 200.14C209.263 200.556 209.523 201.124 209.523 201.844C209.523 202.292 209.427 202.716 209.235 203.116C209.043 203.516 208.679 203.972 208.143 204.484L205.575 206.956H209.883ZM211.49 208.072C211.266 208.072 211.074 207.996 210.914 207.844C210.754 207.684 210.674 207.484 210.674 207.244C210.674 207.012 210.754 206.82 210.914 206.668C211.074 206.508 211.266 206.428 211.49 206.428C211.714 206.428 211.902 206.504 212.054 206.656C212.206 206.808 212.282 207.004 212.282 207.244C212.282 207.484 212.202 207.684 212.042 207.844C211.89 207.996 211.706 208.072 211.49 208.072ZM216.611 202.9C217.163 202.9 217.655 203.004 218.087 203.212C218.527 203.42 218.871 203.72 219.119 204.112C219.367 204.496 219.491 204.94 219.491 205.444C219.491 205.972 219.359 206.436 219.095 206.836C218.839 207.236 218.483 207.548 218.027 207.772C217.579 207.988 217.075 208.096 216.515 208.096C215.387 208.096 214.515 207.732 213.899 207.004C213.291 206.276 212.987 205.244 212.987 203.908C212.987 202.972 213.151 202.176 213.479 201.52C213.815 200.856 214.279 200.356 214.871 200.02C215.471 199.676 216.167 199.504 216.959 199.504C217.367 199.504 217.751 199.548 218.111 199.636C218.471 199.716 218.783 199.836 219.047 199.996L218.591 200.932C218.191 200.668 217.655 200.536 216.983 200.536C216.111 200.536 215.427 200.808 214.931 201.352C214.435 201.888 214.187 202.672 214.187 203.704C214.187 203.832 214.191 203.932 214.199 204.004C214.439 203.644 214.767 203.372 215.183 203.188C215.607 202.996 216.083 202.9 216.611 202.9ZM216.467 207.124C217.019 207.124 217.467 206.976 217.811 206.68C218.155 206.384 218.327 205.988 218.327 205.492C218.327 204.996 218.151 204.604 217.799 204.316C217.455 204.02 216.991 203.872 216.407 203.872C216.031 203.872 215.695 203.944 215.399 204.088C215.111 204.232 214.883 204.428 214.715 204.676C214.555 204.924 214.475 205.2 214.475 205.504C214.475 205.8 214.551 206.072 214.703 206.32C214.863 206.56 215.091 206.756 215.387 206.908C215.691 207.052 216.051 207.124 216.467 207.124ZM225.239 203.596C225.719 203.78 226.087 204.044 226.343 204.388C226.599 204.732 226.727 205.144 226.727 205.624C226.727 206.128 226.591 206.568 226.319 206.944C226.047 207.312 225.659 207.596 225.155 207.796C224.651 207.996 224.059 208.096 223.379 208.096C222.707 208.096 222.119 207.996 221.615 207.796C221.119 207.596 220.735 207.312 220.463 206.944C220.191 206.568 220.055 206.128 220.055 205.624C220.055 205.144 220.179 204.732 220.427 204.388C220.683 204.044 221.051 203.78 221.531 203.596C221.147 203.412 220.855 203.168 220.655 202.864C220.455 202.56 220.355 202.2 220.355 201.784C220.355 201.32 220.479 200.916 220.727 200.572C220.983 200.228 221.339 199.964 221.795 199.78C222.251 199.596 222.779 199.504 223.379 199.504C223.987 199.504 224.519 199.596 224.975 199.78C225.439 199.964 225.795 200.228 226.043 200.572C226.299 200.916 226.427 201.32 226.427 201.784C226.427 202.192 226.323 202.552 226.115 202.864C225.915 203.168 225.623 203.412 225.239 203.596ZM223.379 200.476C222.811 200.476 222.363 200.6 222.035 200.848C221.707 201.088 221.543 201.416 221.543 201.832C221.543 202.248 221.703 202.576 222.023 202.816C222.351 203.056 222.803 203.176 223.379 203.176C223.963 203.176 224.419 203.056 224.747 202.816C225.083 202.576 225.251 202.248 225.251 201.832C225.251 201.416 225.079 201.088 224.735 200.848C224.399 200.6 223.947 200.476 223.379 200.476ZM223.379 207.124C224.043 207.124 224.567 206.988 224.951 206.716C225.335 206.436 225.527 206.06 225.527 205.588C225.527 205.124 225.335 204.76 224.951 204.496C224.567 204.224 224.043 204.088 223.379 204.088C222.715 204.088 222.195 204.224 221.819 204.496C221.443 204.76 221.255 205.124 221.255 205.588C221.255 206.06 221.443 206.436 221.819 206.716C222.195 206.988 222.715 207.124 223.379 207.124Z" fill="white"/>
</svg>